<?xml version="1.0" standalone="no"?>
<!DOCTYPE svg PUBLIC "-//W3C//DTD SVG 20010904//EN"
 "http://www.w3.org/TR/2001/REC-SVG-20010904/DTD/svg10.dtd">
<svg version="1.0" xmlns="http://www.w3.org/2000/svg"
 width="1280.000000pt" height="1280.000000pt" viewBox="0 0 1280.000000 1280.000000"
 preserveAspectRatio="xMidYMid meet">
<metadata>
Created by potrace 1.15, written by Peter Selinger 2001-2017
</metadata>
<g transform="translate(0.000000,1280.000000) scale(0.100000,-0.100000)"
fill="#000000" stroke="none">
<path d="M9741 12150 c-18 -121 -14 -118 -73 -68 -56 46 -56 42 6 -42 28 -39
42 -69 46 -102 4 -27 4 -48 0 -48 -3 0 -36 25 -73 55 -37 31 -67 53 -67 51 0
-3 34 -52 75 -109 l76 -105 6 -101 c3 -55 3 -101 -1 -101 -3 0 -43 25 -89 55
l-82 55 -49 110 c-27 61 -51 108 -54 106 -2 -3 1 -37 8 -76 7 -39 10 -74 7
-77 -3 -3 -20 5 -38 18 -21 14 -45 51 -71 103 -37 79 -38 80 -32 36 3 -25 8
-53 10 -62 7 -24 -3 -23 -92 12 -42 17 -78 29 -80 27 -2 -1 28 -27 66 -57 67
-52 85 -73 58 -69 -16 3 -99 -36 -99 -45 2 -18 -1 -19 -9 0 -4 11 -11 50 -15
87 -4 37 -11 67 -15 67 -4 0 -10 -26 -14 -58 -4 -31 -10 -70 -14 -85 l-8 -29
-54 44 -55 43 40 -55 c21 -30 47 -66 57 -79 11 -15 18 -41 18 -68 l0 -45 -52
43 c-99 80 -92 76 -83 59 5 -8 39 -57 76 -108 l66 -92 7 -102 c3 -55 5 -102 3
-104 -1 -2 -42 23 -89 54 l-87 57 -52 118 c-29 64 -54 116 -55 114 -2 -2 3
-41 11 -87 8 -46 13 -85 11 -87 -1 -2 -20 10 -42 26 -30 21 -46 46 -69 100
-33 82 -47 99 -34 43 5 -20 9 -49 9 -64 l0 -26 -87 34 c-47 19 -88 34 -91 34
-3 0 30 -28 73 -62 l78 -62 -39 -17 c-21 -10 -44 -18 -51 -18 -6 -1 -14 -5
-17 -9 -2 -4 32 -4 76 1 68 8 86 6 119 -8 21 -10 39 -21 39 -25 0 -4 -37 -22
-82 -39 -83 -31 -83 -31 -33 -26 28 2 88 8 134 11 l83 7 89 -44 c49 -24 89
-46 89 -49 0 -3 -40 -25 -89 -49 l-89 -44 -88 7 c-49 3 -109 9 -134 12 -41 4
-38 2 38 -28 45 -18 82 -35 82 -39 0 -3 -18 -14 -39 -24 -34 -15 -51 -16 -122
-7 -46 5 -85 8 -87 6 -2 -1 24 -13 59 -25 l62 -23 -44 -35 c-24 -20 -59 -50
-77 -67 l-35 -30 78 -62 78 -62 -39 -15 c-81 -32 -81 -35 -4 -29 41 3 80 7 85
9 6 1 30 -7 54 -19 l43 -22 -86 -34 c-48 -18 -85 -34 -84 -35 2 -1 61 4 131
11 l128 14 90 -45 c49 -25 89 -47 89 -50 0 -3 -41 -26 -92 -51 l-92 -46 -105
11 c-151 16 -156 14 -63 -22 l83 -33 -44 -21 c-39 -19 -52 -20 -118 -12 -106
12 -111 10 -48 -14 31 -12 57 -26 58 -30 1 -5 -26 -31 -61 -58 -35 -28 -67
-55 -73 -60 -5 -5 31 6 80 26 50 19 91 35 93 35 2 0 1 -28 -2 -62 l-7 -63 36
80 c27 60 45 86 72 103 19 13 37 22 39 20 2 -3 -3 -42 -11 -88 -8 -46 -14 -85
-12 -86 1 -2 26 51 56 116 l53 118 84 56 c46 31 86 56 89 56 3 0 3 -46 -1
-102 l-7 -103 -73 -103 c-41 -56 -74 -104 -74 -107 0 -3 30 20 68 50 l67 56 3
-41 c3 -35 -3 -49 -47 -110 -28 -38 -51 -72 -51 -76 0 -3 20 11 45 32 25 20
48 34 51 31 4 -3 11 -42 17 -86 6 -45 14 -81 17 -81 4 0 11 28 14 63 11 90 17
117 27 111 5 -3 7 -10 4 -15 -4 -5 6 -14 22 -20 15 -6 36 -18 45 -26 12 -11
18 -12 18 -4 0 7 5 9 11 6 14 -9 -11 -36 -84 -91 -33 -24 -56 -44 -53 -44 4 0
45 16 93 35 48 19 88 33 90 32 1 -2 -2 -30 -8 -61 -6 -32 -9 -60 -7 -62 3 -2
19 32 38 76 27 63 42 85 72 105 44 29 45 27 27 -69 -5 -31 -9 -62 -7 -67 2 -5
25 41 53 102 l49 111 90 60 89 61 -6 -107 -6 -106 -75 -105 c-42 -58 -74 -105
-71 -105 2 0 30 22 62 48 81 67 78 66 74 14 -2 -37 -14 -61 -52 -114 -27 -38
-47 -68 -43 -68 3 0 25 16 50 36 50 41 48 43 64 -66 6 -41 12 -76 14 -78 2 -2
10 37 16 87 7 50 15 91 18 91 3 0 27 -18 54 -41 26 -22 48 -38 48 -35 0 3 -22
36 -49 73 -36 50 -51 81 -56 117 -8 57 -14 59 82 -21 28 -24 54 -43 57 -43 3
0 -29 48 -71 107 l-78 106 -5 104 c-3 57 -4 103 -2 103 1 0 42 -26 90 -59 l87
-59 49 -111 c27 -61 51 -109 53 -107 2 2 -2 40 -10 85 -8 44 -12 81 -10 81 2
0 19 -10 38 -22 26 -17 44 -44 72 -105 20 -45 38 -81 40 -79 2 1 -2 29 -8 60
-6 32 -9 59 -7 61 2 1 37 -10 78 -26 118 -46 120 -45 32 21 -57 44 -79 66 -70
71 7 4 15 3 19 -3 4 -7 9 -6 14 2 4 7 23 18 42 26 18 8 31 19 28 24 -3 6 -2
10 3 10 10 0 17 -27 28 -117 4 -29 10 -50 14 -48 4 3 11 36 15 73 10 99 14
102 71 56 51 -41 51 -40 -19 60 -32 45 -38 61 -35 95 l3 40 69 -56 c77 -63 75
-55 -17 70 l-65 89 -7 99 c-4 55 -5 102 -2 105 3 3 43 -20 89 -51 l84 -56 54
-119 c29 -66 54 -119 56 -118 1 2 -4 41 -12 87 -8 46 -13 85 -11 87 2 2 21 -9
43 -25 30 -21 46 -46 69 -100 32 -79 41 -80 27 -2 -5 28 -6 51 -2 51 4 0 24
-7 44 -15 86 -36 140 -54 125 -43 -8 7 -43 35 -77 62 -35 27 -59 53 -55 56 4
4 29 15 56 25 26 10 46 19 44 21 -2 2 -41 -1 -86 -6 -75 -8 -87 -7 -123 11
-22 11 -38 22 -36 24 2 2 39 17 83 34 90 34 81 36 -75 20 l-105 -11 -92 49
-92 49 97 47 97 48 125 -15 c69 -8 126 -13 128 -11 1 1 -37 17 -84 35 l-87 33
42 21 c38 20 50 21 119 14 98 -11 108 -7 38 17 -31 11 -56 22 -56 25 0 3 34
32 76 65 l77 60 -49 40 c-26 22 -61 52 -77 66 l-30 25 49 18 c75 28 71 33 -17
23 -69 -8 -87 -7 -120 8 -21 10 -39 21 -39 25 0 4 37 22 83 39 82 31 82 31 32
26 -27 -2 -88 -8 -134 -11 l-83 -7 -89 44 c-49 24 -89 46 -89 49 0 3 40 26 90
50 l89 44 123 -12 c67 -6 124 -10 126 -8 1 2 -31 16 -73 31 -41 15 -75 31 -75
35 0 4 18 15 39 25 33 15 51 16 120 8 88 -10 92 -5 17 23 l-49 18 30 25 c16
14 49 43 73 64 l45 37 -52 -20 c-29 -10 -69 -26 -89 -35 -20 -8 -38 -14 -40
-13 -1 2 2 27 8 57 5 29 7 55 5 57 -2 3 -19 -29 -37 -70 -25 -59 -41 -80 -72
-101 l-39 -26 6 48 c4 26 11 66 15 88 10 46 5 59 -9 23 -5 -13 -29 -67 -54
-120 -47 -100 -51 -104 -176 -183 l-44 -27 7 104 c8 113 0 95 115 258 47 67
43 66 -46 -8 l-53 -44 0 46 c0 39 7 56 49 113 28 37 48 69 46 71 -2 3 -23 -12
-47 -32 -49 -43 -52 -40 -64 63 -11 96 -15 98 -112 60 -45 -18 -85 -30 -88
-26 -3 3 -1 29 5 58 6 28 10 54 8 56 -2 2 -20 -33 -40 -77 -27 -59 -45 -85
-69 -100 -17 -10 -34 -17 -36 -15 -3 3 1 39 7 81 7 41 11 77 9 79 -2 2 -27
-49 -56 -113 l-52 -117 -80 -52 c-44 -29 -83 -53 -87 -53 -5 0 -6 44 -3 98 6
107 4 104 95 227 75 103 75 104 -2 42 -39 -31 -73 -57 -77 -57 -4 0 -5 19 -1
43 4 27 25 69 58 117 l51 75 -54 -43 -55 -44 -15 99 -16 98 -13 -85z m599
-291 c0 -50 -24 -159 -34 -156 -6 3 -10 10 -8 16 1 6 -2 11 -7 11 -4 0 -25 11
-45 25 -21 14 -35 21 -31 15 3 -5 1 -10 -5 -10 -7 0 -10 4 -8 10 4 11 120 109
131 109 4 1 7 -8 7 -20z m-920 -148 l35 -19 -40 -17 c-22 -9 -52 -19 -67 -22
-14 -3 -56 -30 -92 -60 l-66 -55 0 43 c0 32 8 55 33 90 17 27 39 50 47 52 39
12 117 5 150 -12z m820 9 c11 -6 33 -31 50 -55 24 -36 30 -54 28 -85 l-3 -39
-63 53 c-35 30 -76 56 -90 59 -15 3 -45 13 -67 22 l-40 17 35 19 c38 20 120
25 150 9z m-601 -119 c106 -54 107 -48 -8 -95 l-64 -26 7 63 6 62 -35 -74
c-34 -72 -35 -73 -67 -67 -17 3 -33 7 -34 9 -1 1 2 24 7 51 5 27 7 51 5 53 -2
2 -14 -21 -27 -51 l-24 -55 -60 5 -60 5 52 -21 52 -21 -14 -32 c-15 -35 -12
-34 -120 -24 l-60 5 35 -15 c19 -8 46 -20 60 -25 l25 -9 -45 -39 c-25 -21 -58
-46 -74 -56 l-29 -17 6 69 c4 38 7 85 7 104 0 28 15 56 68 130 l68 95 100 11
c54 6 106 12 114 12 8 1 58 -21 109 -47z m463 33 l88 -6 69 -97 68 -96 6 -102
c6 -118 11 -115 -86 -40 l-58 45 60 23 c34 12 61 23 61 25 0 4 -101 -4 -137
-12 -17 -3 -26 3 -38 26 -16 31 -13 50 8 50 7 1 26 7 42 16 29 14 29 14 -27
10 l-57 -4 -22 54 c-12 29 -24 52 -26 50 -3 -2 0 -27 5 -54 8 -47 7 -51 -12
-56 -44 -12 -52 -6 -80 62 -27 61 -58 113 -43 70 4 -10 9 -40 13 -68 l7 -51
-53 21 c-28 11 -66 28 -83 37 l-31 16 94 48 c62 31 104 47 120 44 14 -2 64 -7
112 -11z m-365 -205 c-5 -100 -5 -101 -51 -167 -91 -133 -78 -124 -205 -135
l-112 -11 -90 44 c-49 24 -89 47 -89 51 0 8 150 72 156 66 2 -2 0 -28 -6 -57
-6 -29 -8 -55 -6 -57 1 -2 17 28 35 67 30 68 32 70 67 70 l36 0 -6 -57 -6 -58
25 54 25 53 57 -6 58 -6 -45 21 c-57 26 -55 23 -40 59 14 33 16 33 113 21 65
-8 63 -2 -5 24 -26 10 -45 21 -43 26 7 10 125 99 132 99 3 0 3 -45 0 -101z
m71 77 c20 -13 52 -37 71 -53 l34 -29 -61 -23 c-34 -12 -62 -24 -62 -27 0 -3
8 -3 18 0 9 2 47 7 83 11 l67 6 11 -32 c6 -18 9 -34 7 -36 -2 -2 -26 -13 -52
-24 l-49 -19 61 6 62 6 25 -54 26 -53 -6 58 -6 57 35 0 c34 0 37 -2 69 -74 18
-41 35 -74 36 -72 2 1 -2 29 -8 60 -6 32 -8 60 -6 63 7 6 157 -57 157 -66 0
-4 -40 -26 -88 -50 l-89 -44 -99 8 c-54 4 -108 11 -119 15 -12 5 -50 48 -86
97 l-64 88 -5 103 c-3 56 -4 102 -2 102 1 0 19 -11 40 -24z m-358 -90 c0 -3
-4 -8 -10 -11 -5 -3 -10 -1 -10 4 0 6 5 11 10 11 6 0 10 -2 10 -4z m630 -6 c0
-5 -2 -10 -4 -10 -3 0 -8 5 -11 10 -3 6 -1 10 4 10 6 0 11 -4 11 -10z m-40
-60 c0 -5 -2 -10 -4 -10 -3 0 -8 5 -11 10 -3 6 -1 10 4 10 6 0 11 -4 11 -10z
m-320 -178 c-3 -30 -16 -62 -35 -89 -27 -38 -35 -43 -83 -49 -41 -5 -63 -2
-93 11 -21 10 -39 21 -39 26 0 4 24 15 53 24 74 23 92 33 145 82 25 24 49 43
52 43 3 0 3 -21 0 -48z m123 4 c40 -38 66 -56 87 -60 27 -6 110 -41 110 -46 0
-4 -18 -15 -39 -25 -31 -13 -52 -16 -94 -11 -49 6 -57 11 -84 49 -29 40 -54
137 -36 137 4 0 29 -20 56 -44z m-698 -51 c-3 -35 -10 -76 -13 -89 l-7 -26
-48 41 c-26 22 -47 38 -47 34 0 -3 20 -34 44 -69 l45 -62 -22 -28 -23 -28 -43
36 c-24 20 -45 36 -47 36 -3 0 11 -21 31 -46 19 -26 35 -51 35 -57 0 -6 -10
-24 -23 -41 -42 -56 -42 -62 0 -28 22 17 45 32 50 32 5 0 16 -13 25 -28 14
-24 15 -31 4 -43 -7 -8 -30 -39 -52 -69 l-39 -55 55 43 54 44 7 -27 c4 -14 11
-55 15 -92 l7 -65 -90 60 -89 60 -48 104 -47 104 46 105 47 104 86 57 c48 32
89 58 91 58 2 0 0 -29 -4 -65z m142 -9 c57 -38 62 -44 107 -146 l47 -106 -49
-105 -48 -104 -80 -53 c-44 -28 -84 -52 -88 -52 -9 0 -1 96 12 143 l8 29 54
-44 55 -43 -39 55 c-22 30 -45 61 -52 69 -11 12 -10 19 4 43 9 15 20 28 25 28
5 0 28 -15 50 -32 42 -34 42 -28 0 28 -13 17 -23 35 -23 40 0 6 14 29 31 52
37 50 30 54 -19 11 l-36 -32 -22 29 -23 28 45 62 c24 35 44 66 44 69 0 4 -21
-12 -47 -34 l-48 -41 -7 28 c-4 15 -11 56 -14 91 l-7 65 30 -20 c16 -10 57
-37 90 -58z m1043 -17 c-6 -46 -13 -85 -14 -86 -1 -1 -24 15 -50 37 -27 22
-50 40 -52 40 -4 0 48 -75 87 -125 5 -6 -2 -24 -15 -40 l-23 -29 -49 40 -49
39 39 -53 39 -53 -32 -45 c-17 -25 -31 -47 -31 -50 0 -3 18 9 40 27 39 31 40
32 60 14 29 -26 26 -38 -27 -113 -46 -66 -41 -67 29 -3 15 13 30 23 32 20 7
-7 27 -162 21 -167 -3 -3 -44 21 -91 54 l-86 59 -45 101 -45 102 46 104 47
105 87 56 c48 30 88 54 90 52 2 -1 -2 -40 -8 -86z m248 -122 l53 -108 -48
-106 -48 -107 -82 -53 c-46 -29 -86 -53 -89 -53 -8 0 5 140 15 157 5 9 21 1
55 -27 26 -22 50 -40 52 -40 2 0 -19 31 -47 70 -50 69 -50 70 -32 94 19 26 38
33 48 16 3 -5 20 -19 38 -32 l32 -23 -36 51 -37 51 34 46 c19 26 34 49 34 53
0 3 -19 -10 -42 -30 -33 -28 -44 -33 -55 -24 -35 29 -33 44 12 106 25 34 45
64 45 68 0 3 -22 -13 -49 -35 -47 -40 -49 -40 -55 -18 -3 12 -9 53 -12 91 l-7
68 84 -53 84 -54 53 -108z m-850 76 c-3 -11 12 -113 22 -150 5 -18 6 -33 4
-33 -6 0 -154 122 -154 127 0 2 6 3 13 2 19 -4 87 33 87 48 0 7 7 13 15 13 8
0 14 -3 13 -7z m68 -2 c-3 -5 8 -14 24 -21 16 -7 35 -18 41 -26 13 -16 33 -19
24 -4 -3 6 1 7 9 4 9 -3 16 -8 16 -9 0 -7 -143 -115 -147 -111 -8 7 20 176 29
176 5 0 7 -4 4 -9z m-918 -92 c-6 -30 -11 -70 -11 -89 0 -19 5 -59 11 -89 7
-30 10 -56 8 -58 -2 -2 -19 6 -39 17 -32 19 -77 95 -77 130 0 27 52 109 82
128 18 12 34 20 35 18 2 -1 -2 -27 -9 -57z m647 -30 c30 -58 30 -58 5 -117
-13 -30 -34 -55 -56 -70 -20 -13 -38 -22 -40 -19 -2 2 1 28 7 58 17 83 18 100
10 123 -5 11 -11 42 -15 69 l-7 47 36 -21 c22 -14 45 -40 60 -70z m539 13
c-13 -64 -13 -80 0 -144 8 -40 13 -74 11 -76 -2 -2 -18 4 -35 15 -20 11 -43
39 -60 73 l-27 55 23 52 c15 34 36 60 60 77 21 14 39 24 40 23 2 -2 -4 -35
-12 -75z m656 -24 l21 -50 -21 -52 c-15 -34 -33 -59 -57 -74 -19 -13 -37 -21
-40 -19 -2 3 1 29 7 58 13 67 14 101 1 159 -18 81 -16 84 28 54 27 -17 46 -41
61 -76z m-1975 -48 c0 -38 -2 -70 -5 -70 -16 0 -160 64 -155 69 3 3 41 20 83
37 42 18 77 32 77 33 0 1 0 -30 0 -69z m915 33 c36 -14 71 -29 77 -35 9 -7 25
-4 55 10 24 12 67 30 96 41 45 18 52 19 52 5 0 -8 -3 -13 -7 -11 -5 3 -8 -19
-8 -48 0 -29 3 -51 8 -48 4 2 7 -1 7 -6 0 -16 -10 -14 -90 19 -40 17 -75 29
-77 27 -2 -2 28 -29 67 -59 62 -49 75 -68 48 -68 -5 0 -6 6 -2 13 4 6 -4 2
-17 -9 -13 -12 -34 -25 -46 -28 -13 -4 -22 -12 -20 -18 1 -6 -3 -12 -9 -15 -7
-2 -16 29 -23 87 -7 49 -14 90 -16 90 -2 0 -8 -33 -15 -72 -15 -95 -19 -110
-31 -102 -5 3 -7 10 -4 15 4 5 0 9 -9 9 -8 0 -28 12 -45 26 -17 14 -31 21 -31
15 0 -6 -4 -11 -10 -11 -21 0 -6 17 61 69 38 30 68 56 66 57 -2 2 -38 -10 -81
-26 -85 -33 -107 -37 -88 -18 15 15 16 83 1 110 -10 18 -9 20 7 13 11 -4 48
-18 84 -32z m1185 2 c39 -16 74 -31 78 -35 4 -4 -31 -22 -78 -40 -47 -18 -89
-30 -92 -26 -4 4 -2 10 4 14 13 9 16 102 3 102 -6 0 -10 5 -10 11 0 6 6 9 13
6 6 -3 44 -17 82 -32z m-525 -35 c0 -5 -5 -10 -11 -10 -5 0 -7 5 -4 10 3 6 8
10 11 10 2 0 4 -4 4 -10z m-286 -210 c-5 -5 -36 -17 -68 -28 -33 -11 -80 -37
-105 -59 -73 -63 -81 -67 -81 -46 1 43 20 95 49 132 29 36 37 40 84 43 55 3
138 -26 121 -42z m-382 28 c35 -29 66 -85 71 -130 l4 -48 -26 19 c-14 11 -44
35 -66 55 -22 20 -45 36 -52 36 -7 0 -38 10 -69 21 l-57 22 34 18 c40 21 137
25 161 7z m-141 -84 l86 -7 67 -94 67 -94 6 -106 6 -106 -44 31 c-24 17 -57
42 -74 56 l-30 24 30 12 c17 7 46 18 65 26 33 13 32 13 -35 8 -38 -3 -75 -7
-82 -9 -15 -5 -32 16 -35 45 -3 20 5 27 42 42 l45 18 -58 -3 -59 -4 -24 51
-24 51 6 -51 5 -51 -32 -7 c-18 -3 -34 -5 -35 -3 -2 2 -20 37 -39 78 -32 67
-35 70 -30 34 3 -22 8 -52 11 -68 l6 -27 -52 20 c-61 24 -110 49 -110 55 0 3
39 25 88 50 63 32 95 43 117 40 17 -2 69 -7 116 -11z m720 -31 c49 -26 86 -50
81 -55 -11 -11 -146 -68 -150 -63 -2 2 1 29 7 61 6 31 9 59 7 61 -2 2 -18 -31
-36 -73 -29 -65 -36 -75 -54 -70 -12 3 -27 6 -35 6 -10 0 -12 12 -7 58 l7 57
-26 -56 -26 -56 -57 4 -57 3 40 -15 c22 -9 43 -19 48 -24 12 -12 -20 -71 -36
-66 -6 2 -43 6 -82 9 l-70 5 57 -22 c31 -12 59 -25 62 -28 3 -3 -26 -29 -65
-58 -39 -29 -71 -51 -73 -49 -1 1 1 48 4 103 l5 101 68 94 67 95 97 11 c54 6
106 12 117 13 10 0 59 -20 107 -46z m-985 -120 c35 -27 64 -51 64 -54 0 -4
-24 -16 -52 -28 l-53 -21 77 5 77 6 16 -30 c18 -36 19 -41 3 -42 -7 0 -31 -9
-53 -19 l-40 -19 60 6 61 5 27 -58 c27 -60 29 -54 11 36 -5 29 -5 30 33 30 39
0 39 0 70 -72 32 -73 39 -70 24 10 -5 23 -5 42 0 42 4 0 43 -15 85 -34 l77
-34 -93 -47 -94 -47 -93 7 c-52 4 -105 10 -118 13 -15 5 -48 41 -88 97 l-64
90 -7 103 c-4 56 -4 102 0 102 4 0 36 -21 70 -47z m1087 -50 l-5 -98 -54 -80
c-30 -44 -61 -88 -69 -99 -11 -15 -36 -20 -133 -29 l-118 -11 -84 45 c-102 53
-95 48 -88 55 11 10 151 64 156 60 2 -3 0 -31 -6 -63 -5 -32 -9 -59 -7 -61 1
-1 17 32 35 73 33 76 33 76 69 73 20 -2 35 -7 35 -13 -1 -5 -4 -30 -7 -55 l-6
-45 27 53 27 54 58 -7 c31 -3 57 -4 57 -1 0 2 -22 12 -50 21 -27 9 -50 19 -50
21 0 3 7 18 15 35 l16 30 77 -6 77 -6 -59 24 -59 23 69 52 c38 28 72 52 75 52
3 0 4 -44 2 -97z m-883 -83 c0 -5 -4 -10 -10 -10 -5 0 -10 5 -10 10 0 6 5 10
10 10 6 0 10 -4 10 -10z m630 6 c0 -3 -4 -8 -10 -11 -5 -3 -10 -1 -10 4 0 6 5
11 10 11 6 0 10 -2 10 -4z m-796 -210 c22 -20 46 -36 54 -36 19 0 112 -33 112
-40 0 -3 -20 -13 -45 -23 -34 -14 -57 -17 -95 -12 -45 6 -53 12 -85 55 -27 37
-35 57 -35 90 l0 41 28 -20 c15 -11 45 -36 66 -55z m1002 -51 c-33 -51 -36
-53 -92 -60 -44 -5 -65 -3 -95 11 -22 9 -39 20 -39 24 0 4 32 18 71 30 39 13
79 31 88 41 9 9 34 32 56 49 l40 32 3 -37 c3 -29 -4 -49 -32 -90z"/>
<path d="M11718 11394 c-5 -4 -8 -19 -8 -32 0 -25 0 -25 -22 -6 l-22 19 22
-36 c31 -52 28 -64 -10 -37 l-33 23 29 -38 c25 -32 53 -127 38 -127 -23 0 -69
44 -89 85 -20 44 -22 46 -17 16 8 -44 -14 -38 -39 10 -13 24 -17 27 -13 11 5
-25 -1 -25 -61 -6 -10 3 -3 -4 15 -16 30 -21 31 -23 15 -36 -26 -20 -33 -17
-34 14 l0 27 -12 -25 c-15 -35 -15 -34 -34 -19 -12 10 -11 5 5 -18 12 -17 22
-39 22 -49 0 -15 -3 -14 -25 6 -32 30 -32 18 -1 -23 20 -28 45 -117 31 -117
-22 0 -71 46 -90 86 -21 43 -23 45 -18 17 8 -45 -11 -42 -37 5 -14 25 -20 30
-16 14 5 -25 2 -25 -49 -7 -14 5 -12 0 8 -15 26 -21 27 -23 10 -37 -16 -13
-15 -13 12 -8 17 3 37 1 45 -4 11 -8 9 -12 -13 -20 -39 -15 -33 -19 18 -13 32
3 58 -1 86 -14 l41 -18 -38 -19 c-28 -15 -50 -18 -88 -14 -43 5 -47 4 -26 -6
35 -15 36 -17 20 -27 -8 -5 -28 -6 -45 -4 -27 5 -28 4 -11 -7 19 -11 18 -13
-10 -36 l-29 -24 28 -24 c32 -28 33 -32 10 -38 -10 -3 -2 -5 18 -6 46 -1 55
-11 27 -29 -21 -12 -20 -13 21 -8 41 4 111 -17 111 -34 0 -18 -73 -39 -117
-35 -42 5 -45 4 -20 -6 35 -14 25 -29 -21 -30 -20 -1 -29 -3 -19 -6 22 -6 22
-11 -5 -35 -23 -20 -18 -20 28 -1 13 5 15 2 9 -17 -5 -15 -4 -20 4 -16 6 4 11
13 11 20 0 7 10 21 22 32 l21 19 -7 -34 c-7 -41 -2 -37 27 19 12 23 37 51 54
62 l33 20 -6 -44 c-3 -25 -19 -62 -37 -88 l-32 -45 30 23 c37 29 46 12 16 -29
-12 -16 -17 -29 -12 -29 5 0 13 5 17 11 4 7 12 -2 18 -22 12 -34 22 -38 63
-25 18 6 21 4 17 -16 -3 -17 0 -15 12 9 25 46 47 52 40 10 -6 -29 -4 -28 19
15 14 26 37 55 50 64 33 22 25 30 -12 11 -17 -8 -45 -12 -70 -9 -35 3 -49 11
-72 41 -28 35 -30 44 -29 119 0 82 4 92 26 70 18 -18 14 3 -5 24 -22 25 -3 48
23 27 16 -13 16 -12 4 8 -11 18 -12 24 -1 37 8 10 9 16 3 16 -6 0 -14 -5 -18
-11 -4 -7 -10 -7 -16 -1 -6 6 -4 20 8 38 10 17 12 24 4 17 -22 -20 -30 -15
-30 17 l0 31 30 -16 c18 -9 39 -34 52 -60 20 -42 21 -45 5 -87 -11 -28 -28
-50 -48 -62 -38 -22 -31 -33 8 -13 19 10 44 13 75 10 55 -6 88 -43 98 -110 8
-48 -5 -56 -35 -23 -17 19 -17 20 1 21 11 1 7 4 -10 8 -34 7 -45 27 -19 34 17
4 17 5 -1 6 -10 0 -25 9 -33 19 -13 16 -13 16 -11 -2 5 -29 -21 -31 -32 -2
-11 30 -24 35 -15 6 6 -18 4 -19 -21 -10 -34 13 -43 6 -15 -12 26 -16 27 -25
4 -31 -10 -3 -3 -5 15 -6 35 -1 46 -26 15 -34 -14 -4 -13 -5 4 -6 12 0 27 -9
32 -18 9 -16 10 -16 11 5 0 30 16 28 34 -5 15 -27 15 -27 16 -5 0 20 2 21 23
11 12 -7 26 -19 31 -28 16 -26 6 -84 -21 -119 -25 -33 -28 -57 -3 -27 7 8 16
15 21 15 15 0 10 -20 -13 -52 -20 -29 -20 -30 -1 -19 18 9 22 7 29 -22 l8 -32
3 33 c5 35 12 39 32 20 7 -7 3 4 -9 25 -25 43 -20 59 10 32 28 -25 25 -9 -5
31 -17 22 -25 45 -25 71 0 44 6 55 37 72 30 15 32 14 26 -11 -3 -19 -2 -19 12
5 18 31 42 31 37 1 -2 -18 -2 -18 8 -1 6 9 21 17 33 17 20 1 20 2 4 11 -23 14
-12 29 21 29 24 1 25 2 9 11 -18 10 -18 11 0 25 27 21 33 17 33 -21 0 -21 -10
-51 -26 -74 -22 -35 -31 -40 -72 -43 -28 -3 -58 1 -75 9 -39 20 -45 9 -8 -13
17 -10 39 -37 51 -63 18 -42 20 -43 15 -13 -6 43 10 41 34 -5 16 -31 20 -34
21 -16 0 20 3 21 26 13 38 -15 42 -12 14 10 -25 19 -25 19 -5 34 18 13 20 13
23 -7 6 -38 22 -43 22 -7 0 26 3 31 12 22 23 -23 29 -12 9 17 -36 50 -25 67
17 29 27 -25 22 -11 -15 38 -20 27 -34 104 -18 104 19 0 60 -40 81 -79 23 -43
24 -44 18 -14 -7 42 15 36 40 -10 13 -24 16 -27 12 -9 -4 19 -1 22 12 17 47
-20 57 -18 28 5 -27 22 -27 24 -10 31 14 6 9 8 -18 8 -46 1 -57 16 -21 30 25
10 22 11 -20 6 -33 -3 -58 0 -80 11 -40 21 -47 31 -47 73 l0 34 22 -19 22 -19
-18 29 c-22 34 -8 58 21 35 17 -13 17 -12 0 8 -12 14 -15 23 -8 28 6 3 11 11
11 17 0 7 -5 6 -14 -1 -23 -19 -30 6 -11 35 16 25 16 25 -4 14 -19 -10 -21 -8
-21 20 l0 31 31 -18 c19 -11 40 -36 51 -62 19 -42 19 -45 2 -83 -10 -22 -31
-50 -48 -64 -34 -26 -26 -31 14 -9 16 8 44 12 75 9 44 -4 47 -3 22 7 -36 14
-25 29 21 30 28 0 32 2 18 8 -18 7 -17 10 13 32 l33 24 -33 27 -32 27 24 11
c22 9 20 10 -12 6 -20 -2 -42 0 -50 4 -15 10 -14 12 21 27 21 10 17 11 -26 6
-36 -4 -60 -1 -82 11 -18 9 -32 19 -32 21 0 2 14 12 32 21 21 11 47 15 80 12
55 -6 60 -2 21 13 -25 9 -26 11 -10 20 10 6 32 8 50 4 31 -6 31 -5 8 8 l-23
14 28 22 c20 16 23 20 9 16 -51 -18 -54 -18 -49 7 4 16 0 13 -13 -11 -25 -48
-47 -54 -39 -10 5 30 3 28 -17 -16 -15 -31 -36 -57 -56 -68 l-31 -18 0 39 c0
28 9 51 31 82 29 40 25 45 -13 12 -16 -14 -18 -13 -18 6 0 11 4 24 10 27 5 3
15 16 21 28 9 18 9 20 -2 10 -20 -19 -29 -16 -29 12 0 14 -4 25 -10 25 -5 0
-10 -11 -10 -25 0 -23 -2 -25 -22 -14 l-22 12 29 25 c28 24 28 24 5 17 -14 -4
-31 -10 -37 -12 -8 -3 -13 3 -13 13 0 14 -5 11 -19 -12 -29 -48 -44 -53 -37
-13 6 32 5 31 -19 -13 -14 -27 -38 -54 -55 -63 l-30 -16 0 39 c0 27 9 51 33
83 l32 44 -30 -23 c-37 -29 -46 -12 -16 29 26 35 27 48 2 25 -19 -17 -20 -17
-23 14 -2 18 -6 28 -10 24z m-128 -195 c0 -5 -8 -9 -18 -9 -11 0 -32 -11 -48
-25 -33 -28 -44 -17 -20 20 20 31 86 42 86 14z m343 -7 c9 -8 17 -24 17 -34 0
-18 -3 -18 -31 6 -17 14 -39 26 -50 26 -21 0 -26 16 -6 23 17 7 49 -2 70 -21z
m-261 -28 c30 -16 31 -17 13 -30 -26 -20 -35 -17 -36 9 -1 20 -2 19 -11 -5
-11 -31 -38 -38 -38 -10 -1 16 -1 16 -11 0 -5 -10 -18 -18 -27 -18 -14 0 -14
-2 -3 -9 23 -15 2 -33 -32 -26 -31 6 -32 5 -8 -8 l24 -14 -24 -17 c-24 -16
-24 -16 -27 20 -4 39 36 109 66 117 37 10 85 6 114 -9z m211 7 c33 -13 67 -71
67 -115 l0 -36 -26 16 -26 17 24 14 c22 13 22 14 -9 8 -34 -7 -55 11 -32 26
11 7 11 9 -2 9 -9 0 -21 10 -28 23 l-12 22 5 -22 c6 -34 -27 -30 -42 5 -9 21
-11 22 -8 5 5 -26 -11 -30 -39 -9 -18 13 -17 14 11 29 33 18 81 21 117 8z
m-171 -84 c-5 -63 -45 -108 -103 -114 -32 -4 -56 0 -79 12 -32 17 -33 18 -15
31 28 21 44 17 38 -8 -4 -20 -2 -19 12 5 19 33 45 37 39 5 l-5 -23 12 23 c9
16 18 21 33 17 19 -6 19 -5 4 8 -24 20 -7 39 28 32 29 -6 29 -6 6 8 l-24 14
24 16 c33 23 34 22 30 -26z m56 20 c11 -8 9 -13 -10 -24 -22 -14 -22 -14 9 -9
38 6 52 -9 27 -30 -18 -14 -18 -15 2 -9 15 4 24 -1 32 -17 l11 -23 0 23 c1 31
25 28 38 -5 10 -26 11 -26 12 -5 1 25 10 28 36 8 18 -13 17 -14 -13 -30 -35
-18 -79 -21 -115 -7 -33 13 -67 71 -67 115 0 38 4 39 38 13z m-68 -142 c-13
-25 -56 -38 -80 -25 -10 6 -6 12 20 22 19 8 42 23 50 33 19 23 27 1 10 -30z
m111 -5 c23 0 25 -15 4 -24 -22 -8 -62 10 -74 33 -20 36 -11 43 20 17 17 -14
39 -26 50 -26z m-335 14 c-3 -9 -6 -23 -6 -32 0 -12 -3 -13 -12 -4 -20 20 -32
13 -13 -8 23 -25 13 -59 -12 -39 -15 13 -15 12 -5 -7 8 -16 8 -24 -1 -34 -10
-10 -7 -11 11 -5 27 8 28 -5 5 -43 l-17 -27 21 18 c20 18 21 17 26 -15 2 -18
4 -34 3 -35 -1 -1 -18 8 -38 22 -21 14 -42 40 -51 64 -15 37 -15 43 2 82 23
51 105 111 87 63z m474 -14 c0 -28 -2 -30 -21 -20 -20 11 -20 11 -4 -14 19
-29 12 -54 -11 -35 -9 7 -14 8 -14 1 0 -6 5 -14 11 -17 7 -5 4 -14 -8 -28 -17
-20 -17 -21 0 -8 29 23 43 -1 21 -35 l-18 -29 22 19 22 19 0 -34 c0 -40 -7
-52 -37 -68 -21 -10 -23 -9 -23 11 -1 22 -1 22 -16 -4 -18 -34 -34 -36 -34 -5
-1 20 -2 20 -11 5 -5 -10 -20 -19 -32 -19 -18 -1 -19 -2 -4 -6 26 -7 15 -27
-19 -34 -17 -4 -21 -7 -10 -8 18 -1 18 -2 1 -21 -26 -29 -35 -25 -35 16 0 23
10 49 27 74 23 32 35 39 73 43 29 3 55 0 73 -10 37 -19 46 -11 12 11 -13 9
-34 35 -46 57 -20 40 -20 43 -4 85 10 26 28 51 48 63 18 11 33 21 35 21 1 0 2
-14 2 -30z m-233 -60 c4 -10 8 -7 12 12 6 24 8 26 29 14 l24 -13 -33 -21 -34
-21 -23 22 c-22 20 -22 22 -5 35 14 10 18 10 21 0 2 -7 6 -20 9 -28z m-351
-35 c1 -54 1 -55 -17 -39 -21 19 -24 46 -9 75 18 32 26 21 26 -36z m259 31
c17 -26 8 -69 -17 -78 -10 -4 -13 8 -13 48 0 59 7 66 30 30z m221 -30 c0 -39
-4 -52 -13 -49 -26 10 -32 64 -11 91 19 22 24 13 24 -42z m261 24 c8 -16 8
-29 1 -46 -20 -44 -34 -35 -34 22 0 57 12 66 33 24z m-797 -25 c0 -23 -2 -24
-26 -13 -24 11 -25 13 -8 25 26 19 34 16 34 -12z m384 10 c17 -9 33 -12 40 -6
6 5 21 12 34 15 19 6 22 4 22 -19 0 -22 -3 -24 -19 -15 -30 16 -36 12 -15 -11
16 -17 16 -22 4 -29 -24 -15 -30 -12 -30 17 0 31 -16 20 -22 -14 -3 -20 -5
-20 -23 -7 -20 15 -20 15 5 34 28 22 24 25 -14 10 -24 -9 -26 -7 -26 15 0 29
5 30 44 10z m488 -4 c4 -4 -6 -12 -22 -18 -28 -11 -30 -10 -30 14 0 21 3 23
23 18 12 -4 25 -10 29 -14z m-488 -93 c9 -12 16 -29 16 -36 0 -12 -4 -11 -22
2 -13 9 -35 21 -50 27 -34 13 -27 29 12 29 18 0 34 -8 44 -22z m131 12 c3 -5
-5 -12 -19 -16 -13 -3 -32 -14 -42 -25 -33 -37 -46 -17 -18 26 17 26 67 35 79
15z m-301 -219 c10 -11 29 -22 42 -25 32 -8 21 -26 -16 -26 -23 0 -33 7 -45
30 -8 16 -15 31 -15 35 0 11 18 4 34 -14z m426 9 c0 -27 -34 -60 -61 -60 -36
0 -47 18 -15 26 13 3 32 14 42 25 19 21 34 25 34 9z m-425 -70 c7 -12 -12 -40
-26 -40 -5 0 -9 11 -9 25 0 25 23 35 35 15z"/>
<path d="M2614 10310 c-180 -33 -363 -131 -472 -255 -37 -42 -37 -42 -138 -53
-113 -13 -212 -41 -296 -83 -32 -16 -60 -29 -62 -29 -3 0 -22 32 -43 72 -73
139 -188 227 -327 250 -59 10 -68 9 -86 -7 -22 -20 -27 -67 -7 -83 6 -5 35
-13 62 -16 114 -16 213 -94 274 -218 l31 -61 -70 -64 c-239 -222 -339 -530
-217 -670 86 -98 239 -97 326 2 95 109 141 353 107 575 l-16 105 22 17 c13 9
58 31 102 48 62 25 87 30 120 25 79 -12 77 -7 40 -98 -46 -114 -68 -247 -61
-372 15 -289 172 -481 422 -516 173 -24 307 31 381 157 126 215 19 617 -216
814 -69 56 -149 103 -207 121 -24 7 -43 15 -43 20 0 10 65 65 112 95 87 55
165 77 273 78 84 1 108 -3 150 -22 117 -54 173 -118 224 -258 117 -321 102
-842 -49 -1649 -27 -143 -53 -286 -59 -318 -12 -69 -5 -89 39 -107 42 -18 184
-8 232 15 49 24 39 -9 238 780 164 649 269 984 385 1220 106 216 194 284 292
224 144 -89 159 -531 43 -1215 -44 -255 -85 -459 -129 -637 -21 -83 -27 -126
-21 -141 17 -47 141 -71 233 -45 77 21 90 44 142 254 50 201 200 669 280 870
198 502 411 745 507 579 78 -133 64 -453 -48 -1174 -123 -787 -139 -917 -139
-1175 0 -212 13 -288 63 -360 43 -62 85 -85 154 -85 150 0 269 121 412 421 65
135 159 385 212 558 24 82 29 91 37 70 78 -195 144 -258 269 -259 203 -1 433
225 665 651 37 69 86 163 108 211 l40 85 94 12 c89 11 258 49 315 71 14 5 26
7 26 3 0 -4 -22 -97 -50 -207 -137 -554 -156 -909 -58 -1057 27 -39 98 -79
143 -79 172 0 351 230 536 690 54 133 154 428 179 526 l10 41 77 7 c107 10
280 48 369 83 9 3 4 -27 -16 -104 -47 -172 -100 -415 -122 -562 -28 -184 -30
-422 -5 -506 27 -87 60 -133 114 -157 157 -70 327 78 502 435 l68 138 6 -84
c8 -95 35 -185 73 -234 57 -75 173 -100 265 -55 54 26 144 114 195 191 45 67
129 241 184 381 l41 105 -6 -165 c-6 -166 -31 -466 -41 -481 -3 -5 -46 -30
-97 -56 -338 -175 -539 -471 -524 -773 23 -474 519 -442 767 50 75 148 143
413 179 697 l18 139 85 84 c104 104 172 204 254 374 65 136 175 446 176 499 2
49 -52 75 -86 42 -9 -9 -20 -35 -26 -58 -30 -115 -108 -325 -160 -432 -68
-138 -122 -224 -186 -292 l-45 -48 5 70 c29 380 32 747 6 795 -36 68 -205 63
-287 -7 -28 -24 -37 -43 -58 -128 -75 -292 -243 -705 -313 -769 -30 -27 -55
-16 -70 29 -10 30 -13 82 -9 200 5 182 23 285 92 534 25 89 45 171 45 182 0
11 -14 28 -32 40 -28 17 -45 20 -118 16 -61 -2 -96 -9 -125 -24 -36 -19 -44
-30 -73 -105 -17 -45 -47 -132 -66 -193 -141 -449 -341 -875 -412 -875 -30 0
-37 41 -31 195 9 226 55 473 161 860 20 71 36 144 36 161 0 48 -30 68 -108 72
-74 3 -92 -1 -312 -76 -119 -41 -317 -88 -327 -78 -2 1 8 36 22 76 14 40 39
130 57 199 27 105 32 146 33 241 0 104 -3 120 -26 171 -20 41 -38 63 -74 87
-43 29 -56 32 -119 32 -48 0 -85 -7 -113 -20 -91 -41 -171 -157 -208 -298 -18
-73 -21 -235 -5 -306 27 -123 104 -224 204 -267 65 -28 66 -3 -15 -250 -134
-410 -321 -799 -384 -799 -29 0 -39 43 -37 154 3 212 48 470 147 836 30 113
55 217 55 233 0 20 -9 33 -32 48 -28 17 -44 20 -113 16 -63 -4 -106 -15 -203
-51 -155 -59 -402 -118 -402 -97 0 4 11 41 25 81 57 166 88 320 89 430 1 123
-11 166 -63 223 -46 51 -85 67 -164 67 -119 0 -208 -67 -272 -205 -46 -98 -60
-165 -59 -280 0 -167 53 -295 153 -371 25 -19 65 -40 88 -47 l42 -11 -70 -137
c-133 -263 -255 -446 -380 -570 -77 -78 -114 -100 -146 -88 -71 26 -126 307
-103 523 6 61 13 118 16 127 2 9 33 31 69 48 87 43 202 152 245 232 46 86 52
174 18 239 -35 65 -110 103 -193 98 -117 -8 -219 -74 -296 -192 -77 -117 -143
-342 -155 -526 -6 -101 -68 -352 -143 -579 -122 -368 -287 -687 -344 -665 -28
10 -39 71 -38 208 1 210 20 359 116 896 110 614 141 872 132 1080 -9 192 -47
309 -133 400 -74 80 -214 128 -337 117 -105 -9 -198 -82 -294 -229 -53 -82
-168 -312 -213 -428 -42 -109 -49 -116 -37 -38 6 35 11 182 11 328 1 223 -2
276 -17 334 -37 147 -126 258 -254 319 -62 29 -77 32 -163 32 -82 0 -103 -4
-153 -27 -104 -49 -190 -161 -274 -358 -78 -182 -144 -371 -198 -567 -31 -109
-56 -201 -58 -205 -1 -5 -2 117 -2 270 0 229 -3 294 -19 377 -64 340 -189 517
-423 597 -93 32 -245 45 -339 28z m-432 -543 c79 -54 148 -139 198 -242 69
-143 78 -282 26 -390 -37 -73 -73 -98 -145 -98 -64 0 -102 17 -147 65 -114
120 -138 398 -52 612 11 28 24 61 29 74 5 12 13 22 18 22 5 0 38 -19 73 -43z
m-586 -204 c10 -179 -31 -340 -104 -404 -31 -28 -41 -31 -80 -26 -63 7 -85 32
-90 104 -8 111 66 267 186 394 52 55 67 67 74 55 5 -8 11 -64 14 -123z m5316
-113 c48 -37 58 -128 33 -276 -24 -133 -101 -384 -123 -398 -4 -2 -24 2 -46 9
-191 66 -223 454 -52 632 51 52 54 53 108 53 40 0 62 -5 80 -20z m1222 -10
c63 -75 38 -301 -64 -583 -29 -79 -34 -87 -54 -81 -50 14 -93 43 -123 83 -91
119 -86 374 10 517 45 68 87 94 153 94 46 0 55 -4 78 -30z m-1784 -495 c0 -69
-55 -154 -142 -221 -61 -47 -61 -47 -54 -18 17 67 76 174 123 223 27 28 55 51
61 51 7 0 12 -15 12 -35z m3435 -1452 c-2 -10 -16 -75 -30 -146 -50 -246 -113
-397 -229 -544 -99 -124 -168 -161 -212 -112 -27 29 -32 190 -10 280 50 201
208 387 431 511 28 15 51 28 52 28 0 0 0 -8 -2 -17z"/>
<path d="M11676 9708 c-8 -55 -17 -70 -31 -48 -3 5 -16 15 -27 21 -17 9 -16 4
10 -32 30 -43 51 -99 37 -99 -4 0 -26 15 -48 33 -44 34 -43 31 14 -53 30 -43
39 -68 44 -117 4 -35 4 -63 -1 -63 -4 0 -30 14 -57 32 -42 27 -55 43 -83 105
-19 40 -35 73 -37 73 -3 0 0 -21 4 -47 5 -25 7 -48 5 -50 -11 -12 -48 27 -66
69 -11 27 -22 48 -25 48 -2 0 -1 -16 2 -35 3 -19 3 -35 0 -35 -4 0 -29 9 -56
20 -29 11 -53 15 -56 10 -3 -5 -9 -32 -12 -60 -3 -27 -8 -50 -10 -50 -3 0 -19
10 -36 22 l-31 22 33 -47 c20 -30 31 -57 29 -73 l-3 -25 -37 31 c-21 17 -38
29 -38 25 0 -3 19 -32 42 -63 37 -49 44 -66 49 -122 3 -36 4 -67 3 -69 -2 -2
-27 11 -55 30 -44 28 -57 44 -87 106 -19 41 -36 72 -37 71 -2 -2 0 -23 5 -48
5 -25 7 -46 6 -48 -11 -11 -42 20 -66 67 -29 54 -30 55 -24 19 7 -44 3 -45
-63 -18 l-48 20 40 -35 c22 -19 43 -35 48 -35 19 0 3 -18 -25 -28 -32 -11 -32
-11 17 -10 52 1 95 -8 95 -21 0 -4 -19 -15 -42 -24 l-43 -17 77 5 c69 5 81 3
132 -22 31 -15 56 -30 56 -33 0 -3 -25 -18 -56 -33 -51 -25 -63 -27 -132 -22
l-77 5 43 -17 c23 -9 42 -20 42 -24 0 -13 -44 -23 -95 -22 -49 2 -49 2 -17 -9
17 -6 32 -14 32 -17 -1 -3 -21 -21 -45 -39 -25 -18 -45 -37 -45 -42 0 -5 20
-24 45 -42 24 -18 44 -36 45 -39 0 -3 -15 -11 -32 -17 -32 -11 -32 -11 17 -10
54 1 95 -8 95 -22 0 -5 -17 -14 -37 -20 -65 -21 -56 -27 24 -18 73 8 81 7 136
-18 31 -15 57 -30 57 -34 0 -3 -25 -18 -57 -34 -51 -25 -63 -27 -132 -22 -72
6 -74 5 -46 -9 17 -8 36 -14 43 -15 20 0 14 -18 -10 -26 -13 -5 -45 -7 -73 -6
l-50 2 34 -15 34 -15 -47 -36 c-25 -20 -46 -38 -46 -40 0 -2 23 5 50 16 28 11
53 20 57 20 3 0 3 -16 0 -35 -3 -19 -4 -35 -2 -35 3 0 14 21 25 48 18 43 55
81 66 69 3 -2 0 -24 -5 -48 -5 -24 -8 -45 -6 -47 2 -2 19 29 38 70 29 63 41
79 86 107 28 19 53 32 55 30 1 -2 0 -33 -3 -69 -5 -56 -12 -73 -49 -122 -23
-31 -42 -60 -42 -63 0 -4 17 8 38 25 l37 31 3 -25 c2 -16 -9 -43 -29 -73 l-33
-47 31 22 c17 12 33 22 36 22 2 0 7 -23 10 -50 3 -28 9 -55 12 -60 3 -5 27 -1
56 10 27 11 52 20 56 20 3 0 3 -16 0 -35 -8 -46 6 -37 26 17 15 39 52 76 64
64 3 -2 1 -25 -5 -50 -5 -25 -8 -46 -6 -46 3 0 19 33 38 73 28 62 41 78 83
105 27 18 53 32 57 32 4 0 4 -30 0 -67 -6 -56 -13 -77 -44 -118 -56 -77 -58
-83 -12 -46 24 18 45 31 49 28 9 -10 -15 -68 -44 -105 -26 -34 -17 -36 20 -4
22 19 22 18 34 -48 l9 -55 8 58 c8 54 17 69 31 47 3 -5 16 -15 28 -22 19 -10
19 -7 -7 26 -25 34 -52 106 -39 106 3 0 24 -15 46 -32 44 -35 43 -32 -14 52
-30 44 -39 68 -44 118 -3 34 -3 62 1 62 4 0 30 -14 57 -32 42 -27 56 -44 84
-105 18 -40 35 -73 37 -73 2 0 -1 21 -5 47 -5 25 -7 48 -5 50 11 12 48 -27 66
-69 11 -27 22 -48 25 -48 2 0 1 16 -2 35 -3 19 -3 35 0 35 4 0 29 -9 57 -20
28 -11 52 -20 54 -20 2 0 7 24 11 53 4 28 9 55 12 60 2 4 18 -3 36 -15 l31
-22 -33 47 c-20 30 -31 57 -29 73 l3 25 38 -31 c20 -17 37 -29 37 -25 0 3 -19
32 -42 63 -38 51 -43 65 -48 125 -3 37 -3 67 0 67 22 0 112 -76 125 -105 8
-19 22 -51 31 -71 20 -46 24 -41 14 16 -5 25 -7 46 -6 48 11 11 42 -20 66 -67
30 -55 30 -55 24 -17 -6 37 -6 38 17 31 13 -4 39 -13 57 -21 17 -7 32 -12 32
-10 0 2 -21 20 -46 40 l-47 36 34 15 34 15 -50 -2 c-27 -1 -60 1 -72 6 -25 8
-31 26 -10 26 6 1 26 7 42 15 28 14 26 15 -46 9 -69 -5 -81 -3 -132 22 -32 16
-57 31 -57 34 0 4 26 19 58 34 55 26 62 27 134 19 83 -10 92 -4 29 17 -23 7
-41 17 -41 21 0 13 42 22 95 21 l50 -1 -34 12 -33 13 48 42 49 42 -49 42 -48
42 33 13 34 13 -50 -2 c-51 -2 -95 8 -95 21 0 4 19 15 43 24 l42 17 -77 -5
c-69 -5 -81 -3 -132 22 -31 15 -56 30 -56 33 0 3 25 18 56 33 51 25 63 27 132
22 l77 -5 -42 17 c-24 9 -43 20 -43 24 0 14 44 23 95 21 l50 -2 -34 15 -34 15
47 36 c25 19 46 37 46 39 0 2 -21 -5 -46 -15 -63 -27 -67 -26 -60 18 6 36 5
35 -24 -19 -24 -47 -55 -78 -66 -67 -1 2 1 23 6 48 5 25 7 46 5 48 -1 2 -18
-29 -36 -68 -27 -60 -42 -78 -83 -106 -28 -19 -53 -34 -56 -34 -3 0 -3 30 0
68 5 59 10 73 48 124 23 31 42 60 42 63 0 4 -17 -8 -37 -25 l-38 -31 -3 26
c-2 16 6 39 20 58 40 53 43 63 14 39 -16 -12 -32 -20 -36 -17 -4 2 -10 26 -14
53 -3 27 -9 52 -12 55 -4 3 -28 -3 -55 -14 -28 -10 -52 -19 -56 -19 -3 0 -3
16 0 35 3 19 4 35 2 35 -3 0 -14 -21 -25 -48 -18 -42 -55 -81 -66 -69 -2 2 0
25 5 50 4 26 7 47 5 47 -2 0 -19 -33 -37 -73 -29 -62 -41 -78 -86 -106 -28
-19 -54 -31 -56 -29 -3 3 -2 33 2 67 5 53 13 72 50 122 23 32 43 62 43 65 0 3
-18 -8 -39 -25 -21 -17 -41 -31 -44 -31 -13 0 14 72 39 106 l29 38 -33 -23
c-18 -13 -34 -22 -36 -20 -2 2 -7 29 -13 59 l-9 55 -8 -57z m-281 -236 c2 -7
1 -11 -3 -8 -5 3 -22 -3 -39 -14 l-31 -18 -6 36 c-12 74 -10 76 34 45 22 -15
42 -34 45 -41z m660 9 l-7 -50 -31 19 c-17 10 -35 17 -41 14 -6 -3 9 13 33 35
24 23 46 39 49 37 2 -3 1 -27 -3 -55z m-575 -61 c0 -4 -18 -13 -41 -20 -22 -8
-55 -26 -72 -42 -18 -15 -35 -28 -39 -28 -16 0 -7 41 15 75 17 26 30 35 57 37
35 3 80 -9 80 -22z m503 20 c25 0 67 -57 67 -90 0 -27 -9 -25 -47 8 -17 16
-50 34 -72 42 -23 7 -41 16 -41 20 0 11 44 29 58 24 8 -2 23 -4 35 -4z m-378
-77 c30 -15 55 -30 55 -34 0 -7 -73 -39 -89 -39 -5 0 -5 16 -1 35 11 48 3 44
-20 -11 -23 -53 -52 -58 -60 -9 l-5 29 -13 -28 c-11 -24 -17 -28 -47 -24 -18
2 -31 0 -29 -4 3 -4 11 -8 17 -8 23 0 38 -17 31 -33 -4 -13 -19 -17 -58 -18
-50 -1 -50 -1 -18 -11 17 -6 32 -14 31 -17 0 -9 -54 -50 -74 -58 -16 -6 -17 0
-10 63 6 59 13 76 49 124 37 49 47 56 86 61 83 11 99 9 155 -18z m361 13 c0 0
19 -26 42 -58 35 -47 42 -66 48 -122 4 -36 3 -66 -1 -66 -10 0 -85 54 -85 61
0 3 15 11 33 17 31 10 31 10 -19 11 -39 1 -54 5 -58 18 -7 16 8 33 31 33 6 0
14 4 17 8 2 4 -10 6 -29 4 -28 -3 -36 0 -49 25 l-16 28 2 -30 c2 -24 -1 -31
-19 -33 -17 -3 -26 6 -42 42 -24 55 -32 59 -21 11 4 -19 4 -35 -1 -35 -16 0
-89 32 -89 39 0 4 24 19 53 34 47 24 59 26 127 21 41 -4 75 -7 76 -8z m-290
-112 c-3 -26 -6 -55 -6 -64 0 -10 -20 -45 -44 -78 l-44 -59 -70 -7 c-63 -6
-75 -4 -126 21 -31 15 -56 30 -56 33 0 8 66 40 82 40 7 0 9 -13 5 -35 -3 -19
-4 -35 -2 -35 2 0 13 21 24 46 15 33 25 45 38 42 13 -2 18 -13 18 -36 0 -17 1
-32 2 -32 1 0 9 14 18 30 12 24 22 30 48 31 31 0 31 1 7 10 -31 13 -32 13 -24
33 4 12 20 16 58 17 50 1 50 1 19 11 -18 6 -33 14 -33 17 1 9 72 61 83 61 6 0
7 -19 3 -46z m66 20 c21 -15 38 -30 38 -34 0 -4 -15 -12 -32 -18 -32 -10 -32
-10 18 -11 38 -1 54 -5 58 -17 8 -20 7 -20 -24 -33 -23 -9 -22 -10 13 -10 23
-1 37 -6 37 -14 0 -7 6 -21 13 -30 11 -16 12 -14 12 15 0 23 5 34 18 36 13 3
23 -9 38 -42 11 -25 22 -46 24 -46 2 0 1 16 -2 35 -4 22 -2 35 5 35 16 0 82
-32 82 -40 0 -3 -25 -18 -55 -33 -50 -25 -62 -26 -126 -21 l-71 7 -44 61 c-24
33 -44 71 -44 86 0 14 -3 42 -6 63 -4 20 -3 37 2 37 4 0 25 -12 46 -26z m-76
-201 c-16 -67 -77 -103 -133 -79 -33 13 -28 22 20 39 24 8 56 26 72 41 36 34
49 33 41 -1z m83 -2 c17 -16 52 -34 77 -41 51 -14 56 -25 17 -35 -70 -20 -126
12 -135 77 -6 35 0 35 41 -1z m-457 -38 c-2 -27 -6 -50 -8 -52 -3 -3 -18 6
-36 19 -32 24 -30 16 9 -36 21 -28 21 -31 6 -47 -16 -16 -18 -15 -40 5 -13 12
-23 17 -23 11 0 -6 7 -16 15 -23 8 -7 15 -20 15 -30 0 -10 -7 -23 -15 -30 -8
-7 -15 -17 -15 -23 0 -6 10 -1 23 11 18 17 26 19 35 10 17 -17 15 -29 -14 -72
l-26 -38 31 23 c17 12 32 21 35 18 6 -7 14 -99 8 -99 -3 0 -27 14 -54 31 -37
24 -56 46 -79 90 -16 32 -29 66 -29 75 0 9 12 43 27 76 21 47 37 67 77 94 28
19 54 34 57 34 4 0 4 -21 1 -47z m84 13 c42 -28 55 -45 78 -100 l28 -66 -28
-66 c-24 -57 -36 -72 -81 -102 -29 -19 -56 -33 -59 -29 -3 3 -2 26 1 51 7 44
17 57 30 36 3 -5 15 -15 26 -21 16 -8 14 -1 -10 32 -26 35 -29 45 -19 58 7 9
13 17 14 19 0 1 14 -8 29 -20 28 -22 27 -10 -3 25 -13 15 -13 19 0 35 28 33
31 47 5 23 -26 -24 -27 -24 -41 -5 -15 20 -15 22 23 74 l26 34 -33 -23 c-18
-13 -35 -22 -37 -20 -8 9 -16 99 -9 99 5 0 32 -15 60 -34z m679 -13 c-8 -58
-10 -60 -32 -41 -39 33 -43 28 -14 -12 26 -35 29 -46 19 -59 -7 -9 -13 -17
-14 -19 0 -1 -14 8 -29 20 -28 22 -27 10 3 -24 13 -16 13 -20 0 -35 -30 -35
-31 -47 -3 -25 15 12 29 21 29 20 1 -2 7 -10 14 -19 10 -13 7 -23 -19 -58 -24
-33 -26 -40 -10 -32 11 6 23 16 26 21 13 21 23 8 30 -36 3 -25 4 -48 1 -51 -3
-4 -29 10 -58 29 -45 30 -57 46 -82 102 l-28 66 28 66 c24 55 38 72 79 100 27
19 54 34 59 34 4 0 5 -21 1 -47z m80 15 c37 -25 57 -47 77 -88 33 -69 34 -91
0 -160 -20 -40 -41 -64 -76 -87 -26 -18 -51 -33 -55 -33 -3 0 -4 22 -3 50 2
27 7 50 12 50 4 0 20 -10 36 -22 l29 -23 -18 25 c-35 50 -41 68 -27 85 12 14
15 13 37 -6 26 -25 32 -15 6 13 -14 16 -14 22 -2 46 23 46 23 48 -3 24 -22
-20 -26 -21 -38 -7 -14 17 -8 35 27 85 l18 25 -29 -23 c-16 -12 -32 -22 -36
-22 -5 0 -10 23 -12 50 -1 28 -1 50 2 50 3 0 28 -15 55 -32z m-461 -97 c3 -27
4 -55 0 -64 -4 -12 -80 -47 -102 -47 -2 0 -2 16 0 35 2 19 0 35 -6 35 -5 0 -6
3 -3 6 4 4 27 -1 52 -11 58 -22 66 -15 20 16 -32 22 -54 50 -37 48 15 -2 52
14 52 22 0 5 4 9 9 9 5 0 11 -22 15 -49z m66 29 c15 -11 30 -17 34 -13 3 3 6
2 6 -4 0 -6 -18 -23 -40 -38 -49 -34 -45 -43 10 -21 55 22 55 22 55 -24 0 -22
-3 -40 -6 -40 -23 0 -99 34 -103 47 -7 16 3 113 11 113 3 0 17 -9 33 -20z
m-616 -42 c-10 -42 -10 -73 -1 -121 8 -37 7 -37 -13 -25 -12 7 -30 30 -41 51
-19 37 -19 37 1 76 29 58 66 70 54 19z m394 12 c26 -24 37 -61 28 -95 -6 -25
-42 -65 -59 -65 -6 0 -6 14 -2 33 9 43 9 44 1 100 -8 52 -1 57 32 27z m368
-70 c0 -49 -3 -90 -6 -90 -15 0 -49 42 -55 68 -9 43 24 110 55 112 3 0 6 -40
6 -90z m379 84 c9 -4 25 -24 35 -44 18 -35 18 -42 5 -73 -8 -19 -26 -42 -40
-51 l-26 -17 8 38 c9 47 10 79 1 121 -8 35 -8 35 17 26z m-1230 -84 c0 -22 -2
-40 -4 -40 -15 0 -91 34 -91 40 0 7 65 37 85 39 6 1 10 -17 10 -39z m1352 24
c24 -9 43 -20 43 -24 0 -6 -76 -40 -91 -40 -2 0 -4 18 -4 40 0 22 2 40 4 40 3
0 25 -7 48 -16z m-650 -71 c22 -21 37 -37 35 -36 -3 1 -17 -6 -32 -17 -16 -11
-30 -20 -33 -20 -2 0 -8 24 -12 53 -7 44 -9 48 -15 27 -5 -14 -8 -37 -9 -52
-1 -33 -5 -34 -41 -8 -15 11 -29 18 -32 17 -2 -1 13 15 35 36 22 20 45 37 52
37 7 0 30 -17 52 -37z m-98 -92 c22 -30 38 -81 26 -81 -5 0 -24 12 -44 28 -19
15 -56 34 -81 43 l-45 16 28 14 c41 22 93 12 116 -20z m190 -10 c-25 -9 -64
-31 -87 -49 l-42 -34 7 34 c15 78 72 111 138 79 l30 -14 -46 -16z m-278 -21
c24 0 37 -11 73 -59 36 -49 44 -70 50 -121 4 -34 5 -65 2 -68 -7 -6 -86 47
-86 58 0 4 15 12 33 18 31 11 31 11 -16 9 -33 -1 -51 4 -57 13 -15 23 -12 28
18 38 l27 10 -32 1 c-26 1 -36 7 -48 31 -9 17 -17 30 -18 30 -2 0 -1 -16 1
-35 4 -30 1 -35 -17 -35 -17 0 -27 12 -42 45 -11 25 -22 45 -24 45 -2 0 -1
-16 2 -35 4 -22 2 -35 -5 -35 -16 0 -82 32 -82 40 0 3 24 18 53 33 41 21 61
26 96 22 24 -3 57 -5 72 -5z m434 -17 c30 -15 55 -30 55 -33 0 -8 -66 -40 -82
-40 -7 0 -9 13 -5 35 3 19 4 35 2 35 -2 0 -13 -20 -24 -45 -15 -33 -25 -45
-42 -45 -19 0 -21 4 -17 36 4 32 3 34 -9 18 -7 -10 -13 -24 -13 -31 0 -8 -14
-13 -37 -14 -37 -1 -38 -1 -10 -11 29 -10 32 -15 17 -38 -6 -9 -24 -14 -57
-13 -47 2 -47 2 -15 -9 17 -6 32 -14 32 -18 0 -4 -21 -22 -47 -40 l-46 -34 6
49 c4 26 7 58 7 69 0 12 20 50 45 83 42 59 47 62 92 66 26 2 58 4 70 5 13 1
47 -10 78 -25z m-624 -80 c21 -16 39 -31 39 -35 0 -3 -13 -9 -30 -13 -49 -11
-42 -20 12 -16 35 2 53 -1 59 -10 14 -22 11 -26 -21 -38 -40 -14 -38 -21 5
-14 30 5 36 2 47 -23 l13 -28 5 29 c8 49 37 44 60 -9 23 -55 31 -59 20 -11 -4
19 -4 35 1 35 16 0 89 -32 89 -39 0 -4 -25 -19 -57 -35 -51 -25 -63 -27 -127
-21 l-71 7 -42 58 c-35 48 -42 68 -48 124 -4 36 -4 66 0 66 4 0 24 -12 46 -27z
m695 -40 c-6 -57 -13 -75 -49 -124 l-42 -57 -71 -7 c-64 -6 -76 -4 -127 21
-32 16 -57 31 -57 35 0 7 73 39 89 39 5 0 5 -16 1 -35 -11 -48 -3 -44 21 10
11 25 24 45 29 45 26 0 36 -13 33 -43 l-4 -32 16 34 c14 31 18 33 50 28 42 -7
46 0 6 14 -22 8 -28 15 -24 30 5 18 12 20 58 17 56 -3 65 6 15 17 -17 4 -30
10 -30 13 1 9 72 61 84 62 5 0 6 -29 2 -67z m-682 -168 c22 -18 42 -33 45 -32
3 1 22 -4 41 -11 l35 -13 -30 -13 c-50 -21 -97 -10 -123 30 -21 33 -30 74 -14
74 4 0 25 -16 46 -35z m676 15 c0 -11 -10 -36 -22 -54 -26 -40 -73 -51 -123
-30 l-30 13 35 13 c19 7 38 12 41 11 3 -1 23 14 45 32 45 40 54 42 54 15z
m-658 -114 c4 3 8 1 8 -4 0 -5 -20 -23 -45 -41 -49 -35 -51 -34 -39 41 l6 36
31 -18 c17 -11 34 -17 39 -14z m667 -49 l1 -28 -45 32 c-43 31 -60 54 -32 44
6 -3 23 4 37 15 l25 19 6 -27 c4 -15 7 -40 8 -55z"/>
<path d="M2340 7265 c-148 -27 -320 -100 -444 -189 l-50 -35 -58 55 c-162 155
-406 171 -627 42 -79 -46 -236 -207 -305 -311 -197 -300 -349 -742 -411 -1197
-23 -166 -30 -480 -16 -623 42 -400 180 -621 419 -667 134 -27 320 8 479 89
233 118 523 425 703 744 18 32 34 56 36 54 2 -2 -8 -111 -22 -241 l-27 -237
21 -21 c42 -42 186 -40 266 5 l39 22 47 190 c113 451 255 780 351 810 29 9 54
-17 69 -71 17 -61 8 -275 -24 -525 -60 -474 -55 -638 23 -760 38 -60 95 -89
177 -89 155 0 298 146 454 465 104 211 191 445 261 700 l31 112 86 6 c48 3
141 20 207 37 66 18 129 34 141 37 20 4 19 -3 -23 -164 -196 -767 -170 -1174
76 -1173 77 1 130 27 205 102 79 81 141 176 228 352 l70 141 -6 -81 c-7 -114
10 -302 34 -371 39 -111 103 -163 199 -163 138 0 254 126 370 402 61 144 121
318 166 482 19 71 36 130 37 131 4 4 392 -402 396 -413 1 -5 -25 -33 -60 -62
-301 -248 -443 -479 -442 -720 0 -78 4 -105 23 -147 45 -101 142 -163 268
-171 103 -7 182 12 299 68 272 132 426 423 386 733 -16 129 -71 280 -133 368
l-18 26 79 62 c43 33 119 99 168 145 l89 85 -8 -58 c-41 -295 -53 -467 -53
-761 -1 -342 8 -412 67 -524 44 -82 89 -111 176 -111 53 0 75 5 111 27 168 98
341 416 527 972 34 104 64 196 65 205 1 9 5 -58 8 -148 l5 -164 28 -21 c58
-43 224 -30 270 22 8 9 25 55 37 102 41 162 150 545 179 630 66 194 136 350
156 350 34 0 40 -40 39 -270 0 -238 -11 -331 -71 -642 -29 -152 -28 -157 31
-182 79 -33 215 -26 250 12 8 10 31 72 50 137 37 126 92 280 145 405 64 149
171 290 220 290 84 0 95 -179 41 -650 -64 -552 -50 -755 60 -854 99 -89 229
-70 341 51 93 99 216 341 308 608 23 66 44 127 47 135 4 10 12 2 25 -25 80
-163 282 -167 457 -10 54 49 147 159 195 230 32 46 32 45 11 -105 -20 -144
-23 -366 -6 -441 14 -63 50 -124 90 -154 17 -13 47 -21 88 -23 75 -5 137 23
211 95 147 144 328 487 476 906 6 15 11 13 39 -20 18 -21 110 -118 205 -217
95 -98 173 -182 173 -186 0 -5 -35 -37 -78 -73 -115 -96 -246 -237 -302 -325
-153 -238 -169 -499 -38 -618 70 -63 118 -79 238 -79 114 0 168 13 275 67 129
65 249 187 314 320 109 224 88 516 -53 751 l-34 56 82 62 c184 142 356 343
405 474 23 61 18 88 -19 100 -37 12 -57 -4 -84 -66 -56 -130 -157 -246 -354
-406 l-93 -76 -23 24 c-204 216 -381 417 -421 477 l-25 38 59 135 c117 266
166 463 159 634 -6 148 -44 216 -156 283 -41 23 -58 27 -127 27 -65 0 -90 -5
-135 -26 -207 -98 -313 -355 -281 -685 18 -177 85 -374 171 -500 l33 -46 -48
-127 c-58 -157 -153 -377 -212 -496 -76 -150 -202 -333 -223 -320 -16 10 -21
114 -10 225 21 223 91 569 178 875 60 211 60 214 -1 244 -59 29 -156 38 -212
19 -37 -12 -41 -17 -64 -83 -139 -408 -239 -613 -393 -802 -131 -161 -173
-154 -188 32 -15 192 17 378 94 540 96 203 151 205 222 8 31 -89 48 -113 79
-113 24 0 55 29 55 51 0 31 -53 170 -86 225 -71 118 -143 169 -239 169 -82 0
-144 -32 -226 -115 -117 -118 -207 -340 -224 -550 -18 -222 -248 -841 -365
-982 -64 -78 -75 -49 -74 197 0 129 9 260 32 465 43 397 44 416 32 499 -31
219 -179 341 -355 295 -123 -32 -228 -127 -316 -288 l-27 -49 0 154 c0 245
-29 367 -106 444 -63 63 -150 78 -226 39 -38 -19 -115 -103 -150 -164 -65
-110 -185 -423 -206 -535 -14 -76 -19 -35 -16 134 l3 177 -26 24 c-24 23 -35
25 -118 25 -75 0 -100 -4 -133 -22 -38 -21 -42 -26 -48 -75 -14 -108 -153
-596 -239 -839 -97 -273 -209 -515 -285 -614 -30 -40 -44 -50 -67 -50 -22 0
-33 7 -43 27 -22 48 -34 196 -27 358 18 437 68 844 210 1700 29 179 59 360 66
404 l12 78 41 -7 c696 -113 1095 -123 1363 -31 217 74 361 212 423 407 27 84
19 119 -27 119 -41 0 -48 -8 -75 -86 -99 -285 -375 -407 -878 -391 -222 7
-367 25 -765 93 -647 110 -891 140 -1075 131 -182 -9 -296 -55 -349 -140 -21
-34 -23 -35 -58 -25 -150 41 -329 -64 -418 -245 -44 -91 -61 -158 -70 -277
-16 -227 36 -445 156 -655 l52 -90 -23 -95 c-80 -335 -218 -700 -289 -764 -56
-51 -75 22 -68 249 8 200 23 323 73 579 34 171 36 191 23 214 -19 35 -87 55
-158 47 -54 -6 -133 -34 -144 -52 -3 -5 -31 -90 -62 -189 -127 -403 -319 -823
-395 -864 -16 -9 -22 -6 -36 15 -15 23 -16 46 -11 178 8 224 52 459 153 825
53 194 56 218 25 243 -53 44 -162 33 -328 -31 -110 -43 -264 -84 -352 -96 -51
-7 -54 -6 -46 12 4 10 25 78 47 149 94 313 89 500 -14 591 -49 43 -98 58 -169
51 -137 -12 -245 -132 -295 -326 -12 -48 -15 -95 -12 -185 5 -136 25 -204 82
-279 36 -48 116 -106 158 -114 15 -3 28 -8 28 -12 0 -12 -88 -299 -118 -383
-111 -312 -283 -645 -358 -695 -23 -15 -26 -15 -42 1 -28 27 -29 278 -2 502
57 478 61 548 35 647 -30 116 -95 200 -180 233 -61 23 -174 16 -235 -16 -106
-54 -214 -211 -285 -413 -15 -43 -30 -76 -32 -74 -2 3 35 309 83 682 47 372
83 688 80 701 -16 62 -160 79 -259 30 -30 -15 -58 -33 -61 -41 -3 -8 -35 -281
-71 -607 l-65 -593 -70 -140 c-136 -273 -293 -497 -475 -680 -187 -188 -319
-265 -452 -265 -118 0 -189 54 -259 195 -225 459 -54 1561 334 2140 127 190
244 285 352 285 60 0 139 -39 184 -92 l35 -40 -58 -68 c-152 -176 -222 -344
-192 -458 50 -186 331 -172 425 21 50 101 52 267 5 396 -11 31 -22 64 -26 73
-4 13 16 31 81 73 105 68 184 105 296 136 72 20 108 23 235 23 137 -1 158 -3
240 -29 120 -38 154 -38 174 -2 15 27 15 29 -12 52 -55 48 -274 96 -432 94
-44 0 -114 -7 -155 -14z m-495 -473 c23 -88 27 -148 15 -206 -20 -98 -75 -156
-158 -164 -42 -4 -52 -1 -71 19 -11 12 -21 35 -21 50 0 40 41 149 81 214 46
76 119 159 131 147 5 -5 15 -32 23 -60z m4677 -51 c256 -37 268 -40 268 -65 0
-12 -24 -168 -54 -346 -30 -179 -71 -431 -92 -560 -36 -234 -37 -235 -79 -300
-23 -36 -80 -103 -126 -147 -81 -79 -248 -223 -259 -223 -11 0 -365 392 -418
462 -31 41 -51 78 -49 87 3 9 28 66 55 126 67 148 118 296 143 419 37 177 15
365 -47 417 -31 25 -1 85 58 115 93 48 328 54 600 15z m-777 -193 c39 -17 66
-79 72 -162 9 -121 -48 -340 -141 -553 l-35 -78 -21 50 c-62 144 -84 333 -56
495 20 116 64 213 109 241 38 22 38 22 72 7z m5654 -3 c107 -55 91 -299 -42
-634 -69 -175 -68 -174 -111 -38 -37 117 -50 216 -42 327 11 173 57 303 121
342 36 22 39 22 74 3z m-7641 -173 c37 -34 47 -90 39 -201 -11 -144 -110 -471
-143 -471 -24 0 -87 36 -115 67 -114 122 -111 394 7 554 60 83 154 105 212 51z
m2262 -1624 c41 -87 53 -156 48 -273 -14 -277 -190 -519 -388 -533 -45 -3 -61
0 -90 20 -39 26 -69 96 -69 163 -1 123 72 295 182 425 54 65 266 260 282 260
3 0 19 -28 35 -62z m5645 12 c107 -211 53 -530 -120 -706 -96 -97 -205 -135
-287 -101 -45 19 -65 49 -80 119 -32 154 83 404 263 574 46 44 190 164 195
164 2 0 15 -22 29 -50z"/>
<path d="M4987 6176 c-50 -18 -64 -31 -77 -70 -21 -63 28 -125 104 -133 57 -7
87 1 124 32 100 84 -19 219 -151 171z"/>
<path d="M1486 4073 c-11 -120 -10 -119 -59 -81 -23 17 -49 36 -57 42 -8 6 8
-18 36 -54 28 -36 56 -75 63 -87 11 -22 16 -83 5 -83 -3 0 -31 19 -62 43 -88
67 -91 66 -32 -8 30 -39 67 -86 83 -106 24 -30 29 -51 38 -133 6 -54 9 -100 6
-103 -3 -3 -44 18 -92 47 l-86 52 -60 116 c-33 65 -58 106 -55 92 21 -97 28
-141 24 -146 -3 -3 -21 4 -40 15 -25 15 -44 41 -73 101 -21 44 -40 78 -41 77
-1 -1 4 -29 11 -62 8 -32 13 -60 11 -62 -1 -2 -42 10 -91 27 -48 16 -91 27
-95 25 -5 -3 -11 -43 -15 -90 -4 -47 -11 -88 -16 -91 -5 -3 -26 8 -47 24 -66
51 -67 47 -8 -26 48 -59 59 -81 64 -119 6 -53 8 -53 -80 14 -31 24 -59 43 -62
43 -4 0 28 -43 70 -96 42 -52 80 -110 84 -127 11 -41 23 -187 17 -187 -3 0
-43 23 -89 50 l-83 51 -62 122 c-34 67 -62 118 -62 112 0 -5 8 -47 18 -92 10
-46 15 -83 12 -83 -4 0 -22 11 -41 24 -24 16 -47 48 -73 101 -21 42 -40 75
-42 73 -2 -2 3 -30 10 -63 8 -32 13 -60 12 -61 -1 -2 -40 11 -86 27 -46 16
-85 28 -87 26 -2 -2 27 -26 65 -53 39 -27 69 -53 68 -58 -2 -5 -27 -18 -55
-29 -29 -11 -51 -21 -49 -23 2 -2 41 1 88 8 73 9 89 8 123 -6 23 -9 36 -20 30
-25 -5 -4 -39 -21 -77 -36 -37 -15 -66 -30 -64 -32 2 -2 50 3 105 12 139 21
145 20 245 -28 l88 -42 -93 -51 -93 -51 -125 8 c-68 4 -126 6 -128 4 -2 -2 36
-15 84 -30 l87 -27 -39 -24 c-36 -22 -46 -24 -129 -19 l-90 5 58 -21 c31 -11
57 -24 56 -27 0 -4 -32 -33 -70 -65 -38 -32 -69 -62 -69 -66 0 -4 34 -32 75
-62 41 -29 75 -56 75 -59 0 -3 -23 -14 -51 -25 -28 -11 -52 -23 -54 -26 -2 -3
33 0 78 7 72 11 87 11 124 -4 24 -9 43 -19 43 -22 0 -3 -33 -18 -73 -34 -82
-33 -106 -49 -62 -41 17 3 75 12 129 20 l100 14 93 -41 c51 -23 93 -44 93 -48
0 -3 -39 -27 -87 -53 l-88 -48 -130 6 -130 5 83 -26 c45 -15 82 -30 82 -34 0
-4 -17 -15 -38 -24 -30 -13 -59 -17 -125 -14 -93 3 -99 -2 -24 -22 26 -7 49
-16 52 -20 2 -4 -27 -33 -66 -65 -38 -32 -68 -60 -66 -62 2 -2 39 13 81 32 42
19 81 35 85 35 4 0 4 -26 0 -57 -4 -32 -6 -59 -5 -61 2 -1 18 33 35 76 25 62
41 86 69 106 20 14 37 24 38 23 2 -1 -2 -35 -7 -75 -6 -41 -9 -78 -7 -84 2 -6
23 39 47 100 47 119 51 124 154 196 l67 48 0 -104 0 -103 -76 -115 c-73 -108
-75 -112 -38 -83 21 17 52 45 68 62 17 17 33 31 37 31 3 0 4 -21 2 -47 -4 -35
-18 -67 -49 -115 -24 -37 -44 -71 -44 -74 0 -4 21 13 47 36 54 50 52 52 73
-68 8 -40 17 -75 21 -78 4 -2 43 12 87 31 44 19 83 35 87 35 4 0 5 -27 1 -60
-4 -33 -5 -60 -3 -60 2 0 16 33 31 73 20 50 39 82 65 104 20 18 39 33 42 33 5
0 -4 -88 -16 -154 -9 -48 4 -24 54 98 l46 115 83 61 c45 33 85 60 88 60 4 0 5
-47 2 -105 l-5 -105 -55 -82 c-99 -150 -98 -148 -20 -79 l72 63 0 -46 c0 -40
-8 -58 -51 -122 -50 -75 -43 -87 15 -25 17 17 33 31 37 31 4 0 14 -39 23 -87
9 -47 18 -88 20 -91 3 -2 8 32 11 76 10 107 14 112 62 75 66 -52 68 -48 10 25
-45 56 -59 81 -64 118 -7 54 -10 55 79 -13 31 -24 59 -43 62 -43 3 0 -30 45
-73 100 -84 107 -79 93 -97 254 -4 33 -3 57 2 54 5 -3 47 -28 94 -56 l86 -51
53 -111 c30 -61 56 -109 58 -107 2 2 -3 33 -12 68 -23 101 -22 104 24 77 31
-18 47 -38 77 -100 21 -43 39 -76 40 -75 3 3 -12 78 -22 109 -4 15 7 13 82
-12 48 -17 89 -29 90 -27 2 2 -28 27 -67 55 -39 30 -67 57 -63 63 5 8 9 8 13
0 5 -8 13 -5 25 8 10 10 29 22 42 25 14 4 22 11 19 16 -3 5 -1 11 4 14 5 3 17
-38 27 -92 l18 -97 11 92 c6 51 13 95 16 98 3 3 27 -11 52 -30 26 -20 47 -33
47 -30 0 3 -22 34 -50 68 -36 44 -51 73 -56 104 -3 24 -5 46 -3 48 3 2 38 -22
79 -53 l75 -56 -29 39 c-17 22 -54 70 -83 107 l-53 67 -11 102 c-5 56 -9 103
-7 105 2 1 42 -21 88 -49 l85 -52 62 -120 c34 -66 62 -115 62 -110 0 6 -6 39
-14 75 -22 101 -22 103 21 78 26 -15 45 -41 75 -100 22 -44 42 -78 44 -76 2 2
-3 29 -10 61 -7 31 -9 57 -5 57 5 0 46 -13 92 -29 45 -17 84 -29 85 -27 1 1
-31 26 -72 56 -41 29 -75 56 -75 60 0 4 21 15 48 25 74 28 69 33 -20 19 -73
-11 -88 -11 -125 4 -24 9 -43 20 -43 23 0 3 36 20 80 39 45 18 79 34 78 35 -2
1 -59 -6 -128 -16 l-125 -18 -92 41 c-51 23 -93 44 -93 48 0 4 39 28 87 54
l87 48 130 -6 131 -6 -82 26 c-46 15 -83 30 -83 33 0 3 17 15 38 26 31 17 50
19 119 15 89 -5 98 0 28 20 -25 7 -48 16 -50 20 -3 4 29 36 71 70 41 35 71 67
67 70 -4 4 -41 31 -81 60 -40 29 -70 56 -65 60 4 4 29 15 56 25 26 10 46 20
43 22 -2 2 -42 -1 -88 -8 -78 -11 -87 -10 -124 9 l-39 20 25 10 c95 39 143 61
130 62 -8 0 -67 -7 -130 -16 l-115 -17 -85 39 c-47 20 -89 41 -93 45 -5 4 31
29 80 57 l88 49 130 -7 c72 -5 131 -7 132 -6 1 1 -36 14 -82 30 -47 15 -85 29
-85 31 0 1 17 13 38 25 33 20 46 22 127 17 l90 -6 -64 22 -64 23 71 59 c39 33
71 63 71 67 1 4 -38 -11 -85 -33 l-87 -39 6 65 c4 36 5 65 3 65 -2 0 -17 -37
-35 -82 -25 -66 -39 -88 -66 -105 -19 -13 -36 -23 -38 -23 -2 0 0 24 4 53 18
126 11 127 -40 3 l-49 -120 -78 -58 c-44 -31 -82 -57 -86 -58 -5 0 -8 45 -8
100 l0 101 68 102 c38 56 72 109 77 117 5 8 -23 -13 -61 -47 -39 -35 -73 -63
-75 -63 -2 0 -2 21 0 47 3 37 15 64 54 123 l51 75 -56 -47 -56 -48 -17 93
c-10 50 -20 95 -22 99 -2 4 -24 -2 -48 -12 -25 -11 -66 -29 -91 -40 l-47 -20
7 62 c4 35 5 61 3 58 -3 -3 -19 -39 -36 -80 -22 -52 -42 -82 -64 -98 -40 -28
-42 -21 -28 80 5 40 9 74 7 75 -1 1 -24 -52 -52 -119 l-49 -122 -80 -58 c-44
-32 -84 -58 -89 -58 -5 0 -6 45 -3 104 l6 105 72 108 c74 110 73 112 -16 34
l-50 -44 -3 43 c-3 34 3 52 31 94 77 116 76 115 17 63 l-55 -47 -17 91 c-10
50 -19 93 -21 96 -3 2 -8 -31 -11 -74z m610 -300 c-12 -106 -18 -133 -27 -127
-5 3 -7 10 -4 15 4 5 0 9 -8 9 -8 0 -31 11 -51 25 -21 14 -35 21 -31 15 3 -5
1 -10 -5 -10 -7 0 -10 4 -8 9 3 10 128 121 136 121 2 0 1 -26 -2 -57z m-1095
-44 c65 -48 83 -69 58 -69 -5 0 -7 5 -4 10 4 6 -10 -1 -31 -15 -20 -14 -41
-25 -45 -25 -5 0 -8 -5 -6 -11 1 -6 -3 -13 -9 -16 -8 -2 -16 21 -23 64 -7 37
-15 78 -18 91 -3 12 -2 22 2 22 4 0 38 -23 76 -51z m994 -65 c34 -9 82 -84 91
-138 l7 -50 -44 34 c-24 18 -48 38 -54 44 -14 15 -50 31 -117 50 -32 9 -58 19
-58 21 0 3 17 13 38 24 36 20 97 26 137 15z m-820 -41 c19 -9 35 -19 35 -22 0
-7 -89 -44 -106 -44 -6 0 -40 -26 -75 -58 l-64 -58 -3 45 c-3 38 2 52 31 92
27 39 40 48 73 53 65 10 72 10 109 -8z m760 -62 c21 -5 49 -32 97 -92 l67 -86
10 -98 c6 -55 8 -101 6 -103 -5 -6 -44 17 -98 57 l-48 36 58 28 c63 29 66 29
-58 12 -44 -7 -46 -6 -59 24 -15 37 -17 34 40 60 l45 20 -60 -5 -61 -6 -23 51
c-29 61 -38 59 -22 -5 7 -25 11 -47 9 -49 -2 -1 -18 -5 -36 -8 -32 -6 -33 -5
-72 71 -23 42 -39 66 -36 52 3 -14 8 -44 12 -68 l7 -43 -74 27 c-41 14 -78 30
-82 34 -5 4 32 30 81 56 l90 49 88 -3 c49 -2 102 -7 119 -11z m-533 -42 c51
-23 95 -43 97 -45 4 -4 -106 -59 -138 -69 -24 -7 -24 -7 -18 56 l7 64 -32 -77
c-26 -65 -35 -78 -54 -78 -46 0 -51 7 -43 63 3 29 5 53 4 55 -1 1 -13 -23 -25
-54 l-23 -56 -58 4 c-67 5 -69 -4 -4 -22 49 -14 51 -16 33 -56 -12 -26 -13
-27 -95 -21 -46 2 -83 3 -83 1 0 -1 27 -11 60 -21 33 -9 60 -20 60 -23 0 -8
-125 -110 -135 -110 -4 0 -5 47 -1 105 l7 106 60 93 60 94 87 12 c48 6 92 13
97 15 26 9 52 2 137 -36z m43 -371 c-36 -54 -70 -98 -75 -98 -6 0 -55 -7 -111
-15 l-100 -15 -95 42 c-108 48 -108 49 -1 97 75 34 72 36 58 -52 -10 -59 -3
-51 34 36 27 65 29 68 59 65 l31 -3 -2 -60 -2 -60 22 55 23 55 57 0 c31 0 57
2 57 5 0 3 -20 11 -45 18 -48 13 -57 32 -32 67 12 15 24 17 90 13 43 -3 77 -4
77 -2 0 2 -25 11 -55 20 -31 10 -54 23 -52 28 2 6 30 33 63 59 l59 48 3 -102
3 -102 -66 -99z m164 261 c33 -22 63 -45 66 -50 4 -5 -18 -20 -47 -34 l-53
-25 50 5 c28 3 62 8 77 11 22 4 29 0 43 -26 9 -18 15 -33 13 -35 -2 -2 -24
-13 -48 -25 l-45 -20 57 6 57 5 26 -50 c14 -28 27 -51 28 -51 2 0 -1 22 -7 50
-5 27 -8 51 -5 54 2 2 18 6 34 8 28 3 33 -2 68 -67 21 -38 36 -59 33 -45 -2
14 -8 42 -11 62 l-7 38 53 -19 c77 -27 109 -43 104 -52 -3 -4 -43 -28 -89 -53
l-83 -46 -112 7 -112 6 -72 90 -72 91 -10 103 c-6 57 -8 103 -4 103 4 0 34
-18 68 -41z m211 -129 c0 -5 -2 -10 -4 -10 -3 0 -8 5 -11 10 -3 6 -1 10 4 10
6 0 11 -4 11 -10z m-560 -20 c0 -5 -5 -10 -11 -10 -5 0 -7 5 -4 10 3 6 8 10
11 10 2 0 4 -4 4 -10z m220 -251 c-18 -27 -42 -51 -54 -54 -76 -15 -95 -14
-137 4 l-44 20 58 25 c32 15 62 26 67 26 5 0 38 25 72 56 l63 56 3 -41 c3 -34
-3 -53 -28 -92z m161 79 c29 -24 73 -46 120 -61 l74 -23 -35 -22 c-25 -16 -51
-22 -92 -22 -55 0 -57 1 -97 48 -34 39 -41 54 -41 90 0 49 0 49 71 -10z m476
-39 c-4 -45 -9 -84 -11 -87 -3 -2 -29 13 -58 34 -29 21 -48 32 -42 24 6 -8 30
-39 52 -68 l42 -54 -21 -29 -21 -30 -31 24 c-18 13 -39 27 -47 32 -16 10 -13
4 37 -58 l22 -27 -20 -33 c-11 -17 -27 -43 -37 -57 -12 -18 -5 -15 26 13 48
42 49 43 74 20 26 -23 23 -37 -22 -104 -23 -32 -37 -59 -33 -59 4 0 24 17 45
37 21 20 41 34 45 30 7 -7 33 -160 28 -165 -1 -1 -42 21 -89 49 l-88 52 -52
105 -52 105 43 106 44 106 81 58 c45 31 84 57 86 57 3 0 2 -37 -1 -81z m120
30 l84 -51 51 -103 52 -103 -40 -103 -39 -102 -85 -63 -85 -63 -3 52 c-1 29 1
69 5 89 l8 37 55 -42 55 -41 -29 39 c-16 22 -40 53 -53 68 -22 28 -23 30 -6
58 10 16 20 29 23 29 3 0 26 -15 51 -32 l44 -33 -23 30 c-58 77 -57 69 -22
120 36 53 30 58 -18 13 l-33 -33 -25 28 -24 28 38 57 c59 88 60 90 7 45 -55
-47 -59 -45 -69 27 -4 25 -9 57 -12 73 -3 15 -2 27 1 27 4 0 45 -23 92 -51z
m-1308 -61 c-1 -35 -4 -73 -8 -86 l-6 -24 -47 36 c-26 20 -50 36 -53 36 -4 0
11 -21 32 -47 71 -87 67 -79 46 -113 l-19 -31 -49 37 c-51 39 -51 34 -2 -28
29 -36 29 -38 13 -63 -9 -14 -24 -37 -33 -52 l-17 -28 30 26 c61 53 60 52 83
21 l20 -29 -45 -66 c-24 -37 -41 -67 -37 -67 4 0 26 18 49 41 37 36 43 39 48
23 8 -27 27 -156 24 -159 -2 -2 -42 20 -89 48 l-86 52 -52 101 c-28 56 -51
107 -50 115 0 8 19 58 42 111 41 95 44 98 117 152 41 30 78 55 83 55 4 1 7
-27 6 -61z m123 15 l79 -48 54 -105 53 -106 -42 -102 c-48 -116 -44 -111 -145
-182 l-74 -52 7 88 c3 48 8 90 11 92 2 3 24 -12 49 -32 24 -20 47 -36 51 -36
4 0 -16 28 -43 63 l-51 63 21 32 20 33 44 -36 c53 -44 56 -37 10 20 l-35 42
35 51 c19 29 32 52 29 52 -3 0 -23 -16 -45 -36 l-40 -36 -20 23 c-25 31 -25
37 3 79 66 98 66 98 12 53 l-50 -43 -7 28 c-16 62 -25 142 -15 142 5 0 45 -21
89 -47z m536 -64 c-10 -7 -10 -9 3 -9 9 0 32 -11 52 -24 24 -16 37 -21 40 -13
2 7 8 9 12 5 5 -5 6 -9 4 -11 -2 -2 -37 -31 -77 -65 l-72 -62 -79 58 c-71 51
-88 72 -60 72 6 0 7 -6 3 -12 -5 -7 7 -1 25 15 18 15 39 27 47 27 9 0 13 4 9
9 -3 5 -1 12 4 16 11 6 26 -42 36 -117 4 -27 11 -48 15 -48 4 0 11 40 14 89 6
74 10 89 23 84 12 -5 12 -7 1 -14z m865 -19 c18 -9 39 -35 57 -70 l28 -55 -22
-53 c-14 -36 -32 -60 -58 -77 -43 -29 -43 -29 -27 64 8 51 7 78 -6 132 -17 78
-18 82 -7 77 4 -2 20 -10 35 -18z m-587 -32 c-15 -99 -16 -129 -1 -189 20 -85
20 -83 -23 -59 -28 16 -46 38 -65 76 l-27 53 21 48 c18 43 71 102 92 103 4 0
6 -15 3 -32z m-543 -85 l27 -51 -20 -53 c-15 -39 -32 -62 -62 -83 l-40 -29 5
29 c17 83 17 143 3 204 -21 86 -21 84 22 57 22 -14 48 -44 65 -74z m-643 55
c0 -7 -5 -42 -10 -77 -9 -51 -8 -76 6 -132 9 -38 15 -71 13 -73 -13 -12 -82
51 -104 93 l-25 49 24 55 c29 63 96 123 96 85z m2047 -52 c2 -2 -35 -20 -83
-40 -47 -21 -89 -35 -92 -31 -4 3 -2 9 3 13 12 8 14 102 3 95 -5 -2 -8 3 -8
11 0 12 16 9 87 -15 47 -16 88 -30 90 -33z m-987 18 c0 -8 -4 -13 -9 -10 -5 3
-8 -19 -7 -48 0 -30 4 -52 9 -49 4 2 7 -2 7 -10 0 -11 -18 -8 -81 15 -45 16
-84 27 -86 24 -2 -2 28 -27 66 -55 39 -28 71 -53 71 -55 0 -2 -7 -7 -16 -10
-8 -3 -12 -2 -9 4 3 6 -14 -2 -38 -18 -25 -15 -43 -30 -41 -34 2 -4 0 -9 -5
-12 -9 -6 -14 13 -40 139 -7 36 -9 37 -14 15 -3 -14 -9 -56 -12 -93 -4 -38
-11 -67 -17 -65 -5 2 -8 7 -6 11 4 8 -72 48 -81 42 -4 -2 -13 0 -20 4 -9 6 9
26 58 67 38 32 68 60 67 62 -2 1 -40 -13 -86 -33 -46 -20 -85 -33 -89 -30 -3
3 0 9 6 13 14 8 12 94 -2 104 -5 4 -7 9 -4 12 6 7 158 -42 177 -57 8 -6 16 -6
25 1 9 8 164 81 175 82 1 0 2 -7 2 -16z m-1190 -50 c0 -8 -4 -12 -10 -9 -6 4
-8 -6 -5 -25 3 -16 7 -44 10 -61 3 -22 1 -30 -8 -26 -6 2 -45 15 -84 28 -40
12 -73 26 -73 29 0 6 146 77 163 79 4 1 7 -6 7 -15z m1570 6 c0 -5 -4 -10 -10
-10 -5 0 -10 5 -10 10 0 6 5 10 10 10 6 0 10 -4 10 -10z m70 6 c0 -3 -4 -8
-10 -11 -5 -3 -10 -1 -10 4 0 6 5 11 10 11 6 0 10 -2 10 -4z m-1260 -56 c0 -5
-2 -10 -4 -10 -3 0 -8 5 -11 10 -3 6 -1 10 4 10 6 0 11 -4 11 -10z m886 -146
l39 -17 -50 -23 c-27 -12 -57 -23 -65 -23 -8 -1 -42 -26 -75 -56 -33 -30 -63
-55 -67 -55 -5 0 -8 17 -8 37 0 51 55 141 89 146 58 9 101 6 137 -9z m-379 -4
c32 0 85 -73 94 -129 4 -25 6 -47 4 -49 -1 -2 -31 20 -65 48 -35 27 -67 51
-72 51 -39 6 -118 32 -124 40 -10 16 69 49 106 44 19 -3 45 -5 57 -5z m609
-100 c82 -38 86 -42 67 -55 -26 -18 -135 -66 -140 -61 -2 2 1 30 6 62 5 33 8
60 6 62 -1 1 -16 -30 -32 -70 -29 -71 -30 -73 -67 -76 l-38 -3 5 58 6 58 -15
-35 c-9 -19 -20 -44 -24 -56 -7 -18 -15 -20 -67 -17 -42 3 -54 2 -43 -6 8 -6
20 -11 27 -11 6 0 23 -4 37 -10 24 -9 25 -11 12 -42 l-14 -33 -84 3 -83 2 64
-21 c35 -11 60 -24 55 -29 -37 -34 -119 -100 -126 -100 -4 0 -8 45 -8 100 l0
101 61 92 c34 51 64 94 66 96 5 7 151 28 200 30 29 1 67 -11 129 -39z m-679 2
c38 -6 48 -15 111 -96 l70 -89 7 -86 c3 -47 9 -94 12 -104 4 -17 2 -17 -19 -7
-12 7 -48 31 -78 53 l-54 41 59 28 c33 16 49 26 35 24 -14 -3 -51 -8 -82 -11
-56 -7 -57 -7 -72 23 -19 37 -20 42 -3 43 6 0 30 9 52 19 l40 19 -62 -6 -61
-6 -26 49 c-26 51 -32 45 -17 -18 8 -36 8 -36 -26 -43 -19 -3 -36 -5 -38 -3
-1 2 -19 35 -39 73 -20 39 -35 59 -32 45 20 -108 21 -103 -5 -95 -59 18 -129
47 -134 55 -3 4 32 29 77 54 79 43 86 45 163 45 44 0 99 -4 122 -7z m722 -358
c-34 -52 -69 -98 -78 -103 -9 -5 -63 -14 -121 -21 l-105 -13 -93 44 -94 43 49
24 c26 14 63 31 82 39 l34 15 -6 -61 c-4 -34 -5 -61 -3 -61 1 0 16 32 31 70
28 69 29 70 66 70 l38 0 -5 -37 c-3 -21 -7 -47 -9 -57 -6 -31 11 -4 30 46 l18
47 58 -6 c70 -7 77 2 14 18 -25 6 -47 15 -50 19 -2 4 1 21 7 38 l12 31 81 -5
80 -4 -58 21 c-67 24 -67 25 23 96 l55 43 3 -100 3 -100 -62 -96z m-1071 229
c15 -10 47 -32 71 -50 l44 -33 -54 -25 -54 -25 60 5 c33 4 67 8 76 11 10 3 21
-8 31 -30 l17 -34 -51 -22 c-27 -12 -48 -23 -46 -25 1 -2 27 1 57 7 29 5 54 8
56 6 1 -2 14 -25 29 -53 l26 -50 -6 45 c-3 25 -7 50 -8 55 0 6 15 11 34 13 34
3 36 1 73 -70 21 -40 35 -62 33 -48 -3 14 -8 44 -12 67 l-6 42 77 -29 c76 -28
92 -37 84 -44 -2 -1 -43 -24 -91 -50 l-88 -47 -114 7 -114 7 -68 89 c-52 66
-71 99 -75 131 -12 81 -19 167 -13 167 2 0 17 -8 32 -17z m282 -93 c0 -5 -2
-10 -4 -10 -3 0 -8 5 -11 10 -3 6 -1 10 4 10 6 0 11 -4 11 -10z m-35 -60 c3
-5 1 -10 -4 -10 -6 0 -11 5 -11 10 0 6 2 10 4 10 3 0 8 -4 11 -10z m875 -142
c0 -29 -9 -55 -31 -89 -28 -45 -33 -48 -84 -54 -52 -7 -118 6 -130 25 -6 9 77
50 101 50 7 0 39 25 71 55 32 30 61 54 66 55 4 0 7 -19 7 -42z m-1076 -30 c22
-18 50 -41 60 -50 11 -10 26 -18 35 -18 22 0 121 -33 121 -40 0 -16 -76 -40
-129 -40 -58 0 -59 1 -95 47 -20 25 -36 56 -36 67 0 12 -3 31 -6 44 -8 30 1
28 50 -10z m-20 -143 c3 -8 12 -15 19 -15 8 0 20 -7 27 -15 7 -9 20 -13 28
-10 7 3 18 3 23 -1 8 -5 -121 -124 -136 -124 -6 0 -3 47 11 143 6 38 18 48 28
22z"/>
<path d="M4210 3020 c0 -27 -4 -50 -9 -50 -4 0 -20 9 -35 21 -35 28 -33 18 9
-37 32 -42 46 -84 27 -84 -4 0 -24 14 -45 31 -20 17 -37 27 -37 24 0 -4 22
-35 49 -69 43 -54 49 -68 54 -123 3 -35 3 -63 0 -63 -3 0 -29 14 -58 32 -45
27 -58 41 -86 100 -36 74 -46 77 -30 9 5 -22 6 -41 2 -41 -16 1 -51 39 -70 78
-26 51 -31 53 -21 7 9 -40 8 -40 -50 -20 -24 8 -45 14 -47 12 -2 -2 15 -17 37
-32 22 -15 40 -32 40 -37 0 -5 -4 -7 -8 -4 -5 3 -20 -6 -35 -19 l-26 -25 -12
58 c-9 39 -14 49 -16 32 -2 -14 -6 -40 -9 -58 l-5 -33 -37 28 -37 28 36 -50
c31 -43 56 -105 42 -105 -3 0 -23 14 -44 31 -21 17 -39 28 -39 25 0 -3 21 -33
47 -67 43 -55 47 -66 51 -125 l4 -64 -55 32 c-48 29 -60 42 -89 101 -40 83
-49 91 -36 31 6 -25 8 -47 5 -50 -12 -13 -41 15 -67 65 -30 58 -37 59 -21 3 5
-17 8 -32 7 -32 -2 0 -29 9 -62 20 l-59 20 27 -20 c14 -11 37 -29 50 -39 l23
-19 -35 -16 -35 -15 60 5 c43 4 65 2 79 -9 18 -13 16 -15 -28 -32 -25 -10 -45
-20 -43 -22 2 -2 37 2 78 8 70 10 77 9 132 -15 31 -14 57 -28 57 -30 0 -3 -25
-19 -56 -36 -54 -31 -58 -32 -135 -26 -43 4 -79 5 -79 2 0 -3 20 -11 45 -17
25 -6 47 -15 50 -19 9 -15 -56 -33 -100 -28 -52 6 -58 1 -15 -13 17 -6 30 -14
29 -17 0 -4 -19 -22 -42 -41 -43 -35 -33 -37 33 -8 l35 15 0 -43 0 -42 -55 18
c-55 19 -55 19 -32 -1 13 -11 35 -28 50 -39 l27 -19 -35 -16 -35 -15 60 5 c43
4 65 2 79 -8 17 -13 15 -16 -28 -32 -26 -10 -45 -20 -43 -22 2 -2 38 1 79 7
73 11 76 10 133 -18 l58 -30 -59 -32 c-56 -32 -60 -33 -136 -26 -43 3 -78 4
-78 1 0 -2 23 -12 52 -22 l51 -17 -28 -15 c-20 -10 -46 -13 -84 -9 l-56 5 39
-17 39 -17 -49 -43 -49 -43 59 26 c32 14 60 26 62 26 1 0 1 -17 -2 -37 -5 -38
-5 -38 20 14 13 28 34 57 46 63 22 12 22 11 16 -42 -7 -57 -5 -55 37 43 19 42
36 64 76 92 l51 37 0 -68 c0 -63 -3 -71 -47 -137 -45 -67 -41 -70 20 -16 l27
25 0 -30 c0 -16 -6 -38 -13 -49 -8 -11 -22 -33 -32 -50 l-19 -30 31 28 c17 16
33 25 36 20 3 -4 9 -30 13 -58 6 -43 9 -46 15 -25 4 14 7 40 8 57 l1 33 32
-20 c17 -10 35 -17 40 -14 24 15 2 -15 -34 -48 l-43 -38 40 16 c75 30 75 30
68 -10 -8 -51 3 -45 22 13 10 30 26 56 42 66 l26 17 -7 -58 -6 -59 32 78 c28
66 40 82 83 113 l50 35 3 -65 c3 -62 1 -69 -36 -123 -57 -85 -59 -92 -16 -51
22 21 43 38 47 38 18 0 4 -56 -23 -96 -31 -45 -28 -60 5 -24 10 11 22 20 26
20 4 0 11 -26 15 -57 6 -47 9 -53 15 -33 4 14 7 42 8 64 l1 38 35 -26 c19 -15
35 -25 35 -23 0 2 -16 24 -35 48 -30 38 -47 89 -29 89 3 0 24 -14 45 -31 21
-17 39 -28 39 -24 0 3 -22 33 -49 66 -42 53 -50 69 -55 121 -4 33 -5 62 -2 65
2 3 29 -10 59 -28 47 -28 59 -42 88 -100 18 -38 34 -67 36 -65 2 2 -1 23 -6
47 -5 24 -8 45 -6 47 11 11 51 -30 72 -73 23 -50 24 -50 18 -12 -7 42 -4 43
55 22 54 -19 61 -13 17 14 -34 21 -69 55 -51 49 11 -3 56 21 65 35 4 5 10 -14
14 -42 9 -65 25 -66 25 -1 0 28 3 50 6 50 3 0 20 -10 37 -22 l32 -23 -23 30
c-46 61 -53 74 -50 95 3 20 5 19 47 -12 48 -35 47 -29 -15 52 -35 47 -42 65
-48 118 -3 34 -3 62 0 62 3 0 29 -16 59 -35 44 -28 61 -47 90 -102 30 -57 34
-62 29 -33 -3 19 -8 43 -10 53 -5 15 -3 16 22 5 17 -8 36 -32 51 -63 l25 -50
-6 38 c-2 20 -3 37 -2 37 2 0 29 -9 61 -20 66 -23 66 -22 0 25 l-48 34 34 15
34 16 -52 -6 c-32 -4 -60 -1 -75 7 -22 12 -22 13 27 36 57 26 51 27 -44 13
-63 -10 -70 -9 -131 18 l-64 28 59 33 c57 31 64 33 145 28 47 -3 76 -1 65 3
-11 5 -35 14 -54 21 -31 12 -32 13 -15 26 10 7 43 13 73 14 l56 1 -34 12 -33
12 48 42 49 43 -29 22 c-78 59 -73 52 -40 71 l29 17 -52 -7 c-33 -3 -60 -1
-75 7 -22 12 -22 13 27 36 56 26 49 28 -45 12 -61 -10 -68 -9 -122 17 -32 15
-58 31 -58 34 0 3 27 19 59 35 54 25 66 27 135 22 42 -3 76 -4 76 -2 0 2 -23
11 -51 20 -46 15 -49 18 -32 31 10 7 43 14 73 14 47 1 51 3 30 11 -37 15 -36
16 11 59 l44 40 -59 -26 -59 -25 6 43 6 43 -19 -40 c-10 -22 -19 -45 -19 -51
-1 -7 -13 -20 -28 -29 l-26 -17 6 56 c3 31 4 56 3 56 -2 0 -16 -34 -32 -76
-26 -68 -35 -80 -84 -115 l-55 -39 -3 61 c-3 59 -1 65 42 130 26 38 46 72 46
76 0 4 -18 -11 -40 -32 l-40 -39 0 33 c0 20 12 50 32 78 31 45 24 49 -19 10
l-22 -20 -7 52 c-8 64 -23 77 -61 58 -15 -8 -39 -18 -52 -22 -23 -7 -23 -6
-18 31 l6 39 -21 -45 c-42 -91 -74 -106 -65 -30 3 28 4 50 2 50 -2 0 -16 -32
-31 -71 -24 -60 -36 -78 -79 -110 -29 -22 -55 -39 -58 -39 -4 0 -7 27 -7 60 0
57 4 66 52 138 l52 77 -47 -38 -47 -38 0 28 c0 16 6 37 13 48 8 11 22 34 32
50 l19 30 -30 -27 c-17 -16 -33 -28 -37 -28 -3 0 -9 23 -13 50 -4 28 -10 50
-15 50 -5 0 -9 -22 -9 -50z m385 -238 c-4 -15 -9 -21 -13 -15 -4 5 -20 17 -35
25 l-29 14 39 34 38 34 3 -33 c2 -19 1 -45 -3 -59z m-28 -34 c20 -19 40 -74
31 -84 -3 -2 -24 11 -48 30 -24 19 -46 34 -49 33 -4 0 -22 3 -41 7 l-34 8 23
19 c29 24 85 17 118 -13z m-557 -3 l25 -14 -47 -21 c-26 -11 -62 -34 -80 -51
l-33 -30 -3 25 c-5 38 37 94 73 99 17 2 32 4 35 5 3 1 16 -5 30 -13z m459 -35
c44 0 48 -2 91 -58 37 -49 45 -66 52 -121 4 -36 6 -66 5 -68 -5 -4 -87 50 -87
57 0 4 15 13 33 22 l32 16 -55 -2 c-44 -1 -55 2 -58 16 -2 12 7 22 30 32 l33
15 -42 -6 c-38 -5 -43 -3 -57 23 l-16 29 2 -30 c2 -24 -1 -31 -18 -33 -17 -2
-26 7 -43 42 -11 26 -23 46 -25 46 -2 0 0 -17 5 -37 4 -21 7 -39 5 -40 -5 -6
-96 31 -96 39 0 3 24 20 53 37 35 20 61 28 81 25 16 -2 49 -4 75 -4z m-263
-50 c2 0 4 -4 4 -8 0 -4 -21 -18 -46 -30 l-46 -23 4 40 c4 48 -4 45 -22 -8
-10 -32 -18 -41 -37 -41 -18 0 -23 6 -24 28 l-1 27 -11 -27 c-9 -23 -17 -28
-46 -29 -32 -1 -33 -2 -11 -8 16 -4 25 -14 25 -26 0 -17 -9 -21 -55 -25 -52
-5 -53 -6 -22 -13 17 -5 32 -12 32 -17 0 -5 -17 -22 -37 -40 l-38 -30 -3 65
c-3 63 -1 68 40 128 l44 62 69 11 c64 9 74 8 124 -13 29 -13 55 -23 57 -23z
m24 -89 c0 -53 -5 -68 -40 -124 l-41 -65 -74 -11 c-71 -10 -76 -10 -137 18
l-63 28 30 15 c17 9 41 19 54 23 23 7 24 6 18 -29 -7 -47 6 -39 23 13 11 33
18 41 38 41 22 0 24 -3 20 -35 -2 -19 -3 -35 -1 -35 1 0 9 16 17 34 14 33 17
35 53 30 29 -4 34 -3 23 5 -8 6 -23 11 -32 11 -19 0 -22 8 -12 34 4 11 20 16
53 17 l46 1 -34 12 -34 12 39 32 c21 18 42 32 46 32 5 0 8 -27 8 -59z m73 30
l37 -29 -37 -16 -38 -16 52 6 c45 5 53 3 62 -15 10 -18 8 -23 -21 -36 l-33
-15 37 5 c33 5 39 2 53 -22 l16 -28 -4 28 c-2 15 -1 27 4 27 4 0 15 3 23 6 12
5 22 -6 37 -41 23 -52 34 -56 20 -7 -11 38 2 41 62 14 l38 -17 -61 -34 c-59
-32 -65 -33 -134 -26 l-72 6 -43 57 c-38 48 -45 65 -51 119 -7 72 -2 75 53 34z
m20 -208 c16 -13 35 -23 42 -23 8 0 26 -5 42 -11 l28 -11 -25 -13 c-62 -35
-130 0 -144 74 -7 37 -10 38 57 -16z m-93 18 c0 -11 -9 -36 -21 -55 -24 -42
-80 -57 -125 -33 l-27 14 50 17 c27 9 63 30 78 46 33 35 45 38 45 11z m385
-58 l-6 -34 -31 23 c-32 22 -31 16 4 -33 19 -25 16 -59 -5 -59 -6 0 -19 7 -29
17 -10 9 -18 11 -18 6 0 -6 7 -16 15 -23 8 -7 15 -20 15 -30 0 -10 -7 -23 -15
-30 -8 -7 -15 -17 -15 -23 0 -6 12 0 26 14 25 23 26 23 39 5 12 -16 11 -23
-11 -58 -25 -38 -19 -42 18 -11 15 14 17 11 23 -24 3 -21 8 -46 10 -56 4 -21
6 -21 -62 17 -43 26 -56 40 -84 98 l-32 67 27 69 c23 59 34 74 79 105 49 35
52 36 55 16 2 -12 1 -37 -3 -56z m80 45 c45 -27 58 -42 86 -99 l32 -68 -26
-68 c-24 -59 -34 -73 -82 -106 l-55 -38 1 38 c0 21 4 46 8 56 6 17 8 17 34 -3
34 -27 35 -17 2 22 -14 16 -25 36 -25 44 0 23 29 28 50 9 11 -10 20 -14 20 -8
0 5 -9 18 -20 28 -20 18 -20 18 2 54 l21 36 -24 -22 c-31 -28 -36 -28 -48 -5
-8 14 -4 27 14 55 33 48 31 57 -4 23 l-30 -28 -6 38 c-3 22 -8 47 -10 57 -4
23 -2 22 60 -15z m-836 -15 c0 -10 -3 -35 -7 -56 l-7 -39 -27 21 c-39 32 -42
25 -8 -17 19 -25 28 -45 24 -55 -8 -21 -28 -22 -44 -2 -7 8 -17 15 -23 15 -6
0 0 -11 13 -25 21 -23 22 -27 9 -52 -23 -47 -23 -49 5 -24 25 24 27 24 40 6
12 -17 10 -24 -17 -65 l-31 -45 34 29 35 29 8 -39 c15 -73 9 -77 -52 -39 -45
27 -61 45 -88 99 l-33 65 29 67 c22 51 39 75 77 105 56 43 64 46 63 22z m76
-18 c44 -27 61 -47 86 -96 l31 -62 -27 -69 c-22 -57 -36 -75 -79 -108 l-51
-39 -3 50 c-2 28 -1 53 2 56 3 3 20 -5 38 -18 28 -20 31 -20 18 -4 -8 11 -23
30 -34 43 -18 21 -19 24 -4 39 16 15 19 15 44 -1 27 -18 26 -8 -4 26 -12 15
-11 21 9 50 l24 33 -29 -23 c-27 -20 -31 -21 -45 -7 -13 13 -14 18 -2 38 49
78 48 75 14 44 -28 -26 -32 -27 -36 -10 -12 38 -19 93 -13 93 4 0 31 -16 61
-35z m383 -58 l32 -13 -45 -37 c-24 -20 -48 -37 -53 -37 -5 0 -31 16 -58 35
-27 19 -43 35 -36 35 8 0 27 9 42 20 l29 21 7 -38 c10 -57 23 -75 24 -33 0 45
11 85 19 71 4 -5 21 -16 39 -24z m553 -39 c14 -28 15 -35 2 -68 -13 -32 -49
-68 -58 -58 -2 2 0 21 5 42 5 21 6 48 4 60 -3 11 -8 36 -11 55 l-6 34 24 -16
c13 -10 31 -31 40 -49z m-414 25 c-15 -56 -16 -78 -6 -113 7 -22 10 -42 7 -45
-12 -12 -40 10 -57 44 -17 33 -18 40 -5 70 20 48 72 85 61 44z m-352 -53 c9
-21 14 -47 11 -58 -8 -24 -44 -72 -55 -72 -4 0 -7 30 -7 68 1 37 -2 79 -7 94
-7 26 -6 27 17 17 13 -6 32 -28 41 -49z m-417 -17 c-1 -32 2 -76 6 -97 l9 -39
-30 21 c-45 32 -57 69 -38 114 12 30 36 56 53 58 1 0 2 -26 0 -57z m1271 36
c23 -7 41 -15 41 -19 0 -3 -22 -15 -48 -26 l-49 -21 -1 34 c-1 19 -5 39 -8 45
-5 7 -2 9 8 5 9 -3 34 -11 57 -18z m-593 -7 c-3 -4 -1 -25 4 -46 6 -29 5 -36
-5 -32 -7 2 -31 10 -54 17 -23 7 -41 15 -41 19 0 4 21 17 48 28 54 25 55 25
48 14z m-168 -23 c23 -6 44 -19 47 -27 8 -20 -5 -127 -14 -115 -9 14 -54 38
-66 35 -5 -1 10 16 34 38 50 46 49 47 -16 21 l-48 -19 0 44 c0 29 4 43 11 40
7 -3 30 -10 52 -17z m126 -72 l29 -23 -32 -13 c-17 -8 -31 -18 -31 -24 0 -29
-19 13 -25 57 -7 45 -6 47 11 38 11 -6 32 -22 48 -35z m98 -58 c21 -11 21 -12
-3 -25 -13 -7 -31 -13 -40 -14 -8 0 -30 -16 -49 -35 -41 -43 -50 -44 -50 -6 0
41 49 91 90 91 17 0 41 -5 52 -11z m-208 -30 c23 -27 36 -79 20 -79 -4 0 -22
14 -41 30 -18 17 -40 30 -48 30 -7 0 -26 5 -42 11 -27 10 -27 11 -9 25 11 8
37 14 57 14 29 0 43 -7 63 -31z m350 -34 c31 -14 56 -27 56 -30 0 -6 -76 -45
-88 -45 -4 0 -7 17 -5 38 l3 37 -19 -45 c-12 -30 -25 -46 -40 -48 -18 -3 -21
2 -22 30 l-1 33 -11 -27 c-9 -24 -17 -28 -51 -29 l-41 -1 33 -11 c22 -7 31
-15 27 -24 -3 -8 -5 -19 -5 -25 0 -7 -19 -9 -50 -6 -57 6 -63 2 -20 -13 17 -6
30 -14 30 -17 -1 -4 -17 -20 -38 -35 l-37 -28 -3 65 c-3 63 -1 69 38 125 41
62 39 61 130 74 50 8 58 7 114 -18z m-434 -1 c64 -11 129 -118 130 -211 0 -18
-2 -33 -5 -33 -7 0 -85 52 -85 56 0 2 15 11 33 19 l32 15 -47 -5 c-40 -4 -49
-1 -58 15 -9 16 -6 22 17 35 l28 15 -33 -2 c-30 -3 -36 2 -53 32 l-19 35 6
-36 c5 -31 3 -37 -15 -42 -18 -4 -26 3 -46 41 l-25 47 6 -37 c7 -44 0 -47 -60
-20 l-40 18 55 31 c56 33 104 40 179 27z m510 -107 c0 -57 -4 -68 -45 -129
l-44 -66 -75 -7 c-68 -7 -80 -5 -133 20 l-58 27 45 23 c25 13 49 24 53 25 5 0
6 -19 3 -42 l-6 -43 21 48 c17 37 26 47 46 47 22 0 23 -3 19 -37 l-6 -38 17
38 c14 33 20 37 52 38 l36 1 -31 11 c-25 10 -30 16 -24 32 6 16 15 19 61 17
52 -1 52 0 -1 20 l-25 9 40 34 c22 19 43 34 48 35 4 0 7 -28 7 -63z m-682 -8
c30 -19 28 -24 -15 -41 l-38 -16 56 5 c47 5 57 3 63 -12 8 -21 10 -18 -29 -38
l-30 -16 40 6 c38 5 42 3 58 -28 l17 -34 -6 38 c-6 34 -4 37 18 37 18 0 29
-10 46 -42 l22 -43 -7 39 c-5 31 -3 38 8 34 8 -3 31 -11 52 -19 20 -7 37 -15
37 -19 0 -3 -26 -18 -58 -35 -50 -26 -65 -30 -128 -27 l-71 3 -46 58 c-40 52
-46 66 -52 127 l-8 68 24 -15 c13 -9 34 -22 47 -30z m653 -218 c-24 -33 -72
-43 -117 -25 l-29 12 37 16 c21 9 41 16 46 16 4 0 24 16 43 36 l34 35 3 -30
c2 -20 -4 -42 -17 -60z m-578 -10 c51 -18 51 -18 27 -31 -14 -8 -42 -13 -63
-11 -47 2 -86 41 -87 85 l0 28 35 -27 c20 -14 59 -34 88 -44z"/>
<path d="M2570 1630 c0 -28 -2 -30 -22 -19 l-21 12 21 -28 c12 -15 22 -34 22
-42 0 -13 -4 -13 -25 1 -32 21 -31 17 5 -29 21 -26 30 -49 30 -74 0 -42 -7
-54 -37 -70 -21 -10 -23 -9 -24 11 -1 22 -2 21 -12 -4 -13 -34 -37 -37 -38 -5
l0 22 -11 -23 c-7 -13 -17 -21 -25 -18 -7 3 -13 1 -13 -3 0 -5 5 -11 12 -13
19 -7 -3 -30 -23 -25 -11 3 -19 1 -19 -4 0 -5 5 -9 12 -9 6 0 3 -9 -7 -20 -26
-29 -35 -25 -35 18 0 87 74 138 165 114 47 -13 58 -8 20 10 -16 7 -37 32 -51
60 -28 55 -36 61 -24 18 5 -17 5 -30 0 -30 -13 0 -40 30 -40 45 0 8 -5 17 -11
21 -8 4 -9 -1 -4 -16 7 -21 5 -22 -21 -16 -16 4 -33 8 -39 9 -5 1 -11 -15 -13
-36 -3 -34 -5 -36 -24 -26 -21 11 -21 11 0 -19 36 -50 27 -69 -15 -30 -32 30
-29 18 7 -27 27 -35 49 -99 37 -111 -14 -14 -69 31 -92 74 -22 43 -24 44 -18
14 4 -26 3 -31 -9 -27 -8 3 -22 20 -32 38 -12 23 -15 26 -12 10 5 -26 -1 -27
-41 -13 l-28 11 29 -24 c28 -23 29 -25 10 -36 -17 -11 -16 -12 9 -6 16 3 38 3
50 -1 19 -6 18 -8 -14 -25 l-34 -19 30 6 c17 3 39 7 50 9 11 2 38 -4 59 -13
l40 -18 -38 -23 c-30 -19 -47 -22 -84 -18 -41 4 -44 4 -19 -6 49 -19 34 -30
-38 -28 -29 1 -29 0 -7 -11 l23 -11 -28 -25 c-26 -22 -21 -23 22 -6 11 5 15
-1 15 -20 0 -23 -2 -25 -19 -16 -32 16 -48 11 -21 -7 14 -9 27 -18 30 -20 2
-2 -2 -8 -10 -13 -11 -7 -5 -10 21 -10 47 0 56 -11 22 -27 -26 -12 -25 -12 18
-7 41 5 119 -15 119 -30 0 -15 -65 -36 -112 -37 -48 0 -50 -2 -25 -11 36 -13
25 -28 -21 -29 -20 -1 -29 -3 -19 -6 23 -6 22 -10 -10 -39 l-28 -25 32 15 c41
21 46 20 38 -4 -10 -32 5 -23 16 9 6 16 17 32 26 35 13 5 15 0 10 -26 -5 -29
-3 -28 16 14 19 40 63 88 81 88 17 0 4 -79 -19 -112 -14 -20 -25 -40 -25 -44
0 -4 11 3 25 16 22 20 25 21 25 6 0 -10 -10 -32 -22 -49 l-22 -32 22 19 c21
18 21 18 27 -10 13 -56 12 -56 44 -39 39 20 41 19 41 -7 1 -20 3 -18 14 8 19
44 36 52 37 17 1 -25 3 -24 20 18 17 38 59 79 83 79 12 0 6 -66 -7 -85 -8 -11
-22 -33 -32 -50 l-19 -30 27 24 c35 32 41 24 17 -24 -25 -49 -25 -53 0 -30 20
18 20 17 20 -8 0 -14 5 -29 10 -32 6 -4 10 7 10 26 0 26 3 30 12 21 23 -23 29
-12 9 14 -12 15 -21 33 -21 41 0 13 4 13 26 -2 l27 -17 -31 43 c-29 41 -31 50
-31 134 0 78 3 95 24 126 31 48 94 61 152 30 l38 -19 -28 -11 c-37 -14 -37
-14 -38 7 0 13 -2 12 -9 -5 -11 -27 -37 -30 -43 -5 -4 16 -5 16 -6 0 -1 -12
-9 -18 -23 -18 -21 -1 -21 -2 -5 -11 24 -14 12 -29 -26 -30 -18 -1 -24 -3 -14
-6 21 -6 22 -17 2 -33 -21 -17 -12 -24 14 -10 18 9 21 8 21 -12 1 -22 1 -22
16 5 18 33 34 35 35 5 l0 -23 11 23 c8 16 17 21 32 17 20 -6 20 -5 2 9 -24 20
-11 37 22 30 25 -5 25 -4 10 9 -17 13 -17 15 0 31 27 23 32 20 32 -20 0 -40
-31 -98 -60 -114 -25 -13 -96 -13 -122 1 -11 6 -22 8 -25 5 -3 -3 7 -11 22
-18 16 -7 37 -32 51 -60 28 -55 36 -61 24 -18 -12 41 6 39 31 -5 24 -40 34
-45 24 -14 -7 20 -5 21 21 15 16 -4 33 -8 39 -9 5 -1 11 13 13 31 3 28 6 32
24 26 20 -6 19 -5 -2 24 -31 42 -22 59 15 30 l30 -23 -33 46 c-31 43 -54 119
-36 119 23 0 70 -43 91 -82 21 -41 22 -42 16 -10 -4 26 -3 31 9 27 8 -3 22
-20 32 -38 13 -25 16 -27 12 -9 -5 25 -2 25 49 7 14 -5 12 0 -8 15 -26 21 -27
23 -10 37 17 13 16 14 -5 8 -13 -4 -35 -4 -50 0 l-27 8 30 14 c30 14 29 14
-20 9 -36 -4 -59 0 -84 13 l-33 18 37 22 c30 17 47 21 84 16 44 -5 45 -4 18 8
-35 17 -25 27 27 28 36 0 38 2 18 10 l-23 9 28 25 28 25 -28 -10 c-37 -13 -37
-13 -37 11 0 18 4 20 28 15 l27 -6 -24 21 c-21 17 -22 22 -10 30 10 6 3 9 -23
9 -43 0 -49 12 -15 28 18 9 13 10 -29 6 -37 -5 -60 -2 -84 11 l-33 17 29 19
c19 12 48 19 84 20 49 0 52 2 27 11 -36 13 -25 28 21 29 20 1 29 3 19 6 -17 4
-16 8 10 35 l28 30 -32 -16 c-42 -21 -45 -20 -38 7 3 12 -4 5 -15 -15 -26 -47
-44 -50 -36 -5 5 27 2 24 -18 -19 -20 -42 -60 -84 -81 -84 -16 0 -2 79 20 112
14 20 25 40 25 44 0 4 -11 -3 -25 -16 -22 -20 -25 -21 -25 -6 0 10 10 32 22
49 l22 32 -22 -19 c-22 -19 -22 -19 -29 15 -6 31 -7 32 -13 10 -6 -28 -19 -35
-39 -22 -11 7 -8 14 15 36 l29 26 -32 -15 c-40 -20 -41 -20 -46 2 -3 13 -6 10
-11 -10 -11 -38 -36 -45 -37 -10 0 24 -2 23 -20 -16 -19 -44 -54 -81 -76 -82
-17 0 -17 60 0 85 8 11 22 34 32 50 l19 30 -27 -24 c-35 -32 -41 -24 -18 22
19 37 16 48 -7 25 -9 -9 -12 -6 -12 14 0 15 -4 30 -10 33 -6 4 -10 -7 -10 -25z
m-186 -157 c-20 -15 -34 -3 -34 30 0 17 1 17 26 0 25 -16 25 -17 8 -30z m408
-10 c19 -23 30 -53 18 -53 -5 0 -12 5 -16 11 -3 6 -22 17 -41 25 -18 8 -31 19
-28 24 10 16 51 11 67 -7z m-342 -3 c11 -7 8 -11 -15 -20 -17 -6 -40 -21 -52
-32 -22 -21 -23 -21 -23 -2 1 33 23 53 70 63 3 0 12 -3 20 -9z m340 -60 c15
-19 31 -54 34 -77 6 -40 4 -43 -31 -68 -37 -25 -88 -32 -125 -17 -31 12 -68
74 -68 112 0 62 38 91 114 87 43 -2 52 -6 76 -37z m-210 -58 c0 -23 -9 -51
-25 -74 -31 -46 -88 -59 -150 -33 l-39 17 24 14 c33 18 40 17 41 -3 0 -14 2
-13 9 5 11 26 39 30 41 5 1 -17 2 -17 6 0 2 9 14 18 26 18 18 1 19 2 4 6 -26
7 -15 27 19 34 17 4 21 7 10 8 -18 1 -18 2 -1 21 26 29 35 25 35 -18z m-11
-128 c-9 -18 -21 -24 -46 -24 -38 0 -44 17 -9 26 14 3 33 15 43 26 22 24 31 6
12 -28z m86 16 c3 -6 15 -10 26 -10 12 0 19 -5 16 -12 -6 -18 -59 -12 -74 9
-21 27 -17 46 6 33 11 -5 23 -15 26 -20z m172 -27 c-3 -2 -16 1 -28 8 l-23 12
25 20 24 19 3 -27 c2 -15 1 -29 -1 -32z m101 -21 c23 -41 23 -43 7 -85 -9 -24
-30 -52 -48 -65 l-32 -22 -3 26 c-4 33 3 40 25 23 17 -13 17 -12 0 14 -22 34
-14 51 16 36 22 -12 22 -11 4 9 -12 13 -15 22 -8 27 6 3 11 11 11 17 0 7 -5 6
-15 -2 -23 -19 -32 16 -10 40 10 11 13 20 7 20 -6 0 -14 -5 -18 -11 -8 -14
-24 8 -24 34 0 18 1 18 33 0 17 -11 42 -38 55 -61z m-582 1 c-3 -3 -12 0 -21
7 -20 17 -19 1 1 -21 22 -24 9 -43 -19 -28 -21 11 -21 11 -5 -7 13 -15 14 -23
6 -39 -10 -18 -10 -19 5 -6 14 11 18 11 23 -4 4 -9 2 -21 -5 -28 -16 -16 -14
-32 3 -18 11 9 15 8 20 -5 14 -38 8 -45 -28 -28 -22 11 -40 31 -55 61 -21 43
-21 47 -6 87 9 23 30 51 48 64 l32 22 3 -26 c2 -14 1 -28 -2 -31z m57 37 c20
-12 42 -37 52 -60 17 -38 17 -42 1 -85 -10 -25 -21 -45 -25 -45 -4 0 -18 11
-31 25 -18 19 -21 28 -12 37 8 8 16 8 29 -3 16 -13 17 -12 5 3 -9 11 -11 26
-6 40 6 20 5 21 -9 10 -23 -20 -32 4 -12 34 16 25 16 25 -4 14 -12 -6 -21 -7
-21 -3 0 4 -3 18 -6 31 -8 27 -4 27 39 2z m397 -25 c18 -19 21 -28 12 -37 -8
-8 -16 -8 -29 3 -16 13 -17 12 -4 -4 11 -14 12 -23 2 -45 -12 -26 -12 -26 7
-9 27 24 39 4 18 -28 -17 -25 -9 -34 11 -14 7 7 12 3 17 -16 4 -15 5 -30 2
-32 -12 -13 -74 40 -91 77 -17 38 -17 42 -1 85 10 25 21 45 25 45 4 0 18 -11
31 -25z m-150 -21 c0 -9 -44 -43 -54 -44 -6 0 -5 5 2 12 7 7 12 23 12 35 0 21
3 22 20 13 11 -6 20 -13 20 -16z m-60 -9 c0 -28 -12 -32 -30 -10 -14 16 -6 35
16 35 8 0 14 -10 14 -25z m135 -36 l1 -61 -23 27 c-13 14 -23 30 -23 34 0 7
38 61 43 61 1 0 2 -27 2 -61z m256 37 c13 -28 5 -71 -14 -79 -9 -3 -13 9 -13
49 0 58 10 68 27 30z m-470 -27 c6 -12 5 -26 -2 -43 -21 -46 -34 -37 -34 25
-1 59 10 65 36 18z m-264 -31 c0 -61 0 -61 -19 -38 -22 28 -23 58 -1 82 9 10
17 18 18 18 1 0 2 -28 2 -62z m383 27 c38 20 40 19 40 -10 0 -22 -2 -24 -26
-15 -37 15 -42 12 -15 -9 24 -19 22 -41 -5 -41 -8 0 -14 9 -14 21 0 11 -4 17
-10 14 -5 -3 -10 -15 -10 -26 0 -17 -3 -18 -21 -8 l-21 11 24 25 c23 26 22 27
-27 7 -11 -5 -15 1 -15 20 0 26 0 26 36 11 32 -13 39 -13 64 0z m75 -85 c3 -5
2 -10 -3 -10 -5 0 -26 -11 -46 -25 -38 -26 -49 -15 -24 25 14 21 62 28 73 10z
m-302 -14 c13 -10 14 -15 5 -23 -33 -25 -38 -24 -38 6 0 34 6 37 33 17z m179
-11 c16 -35 4 -41 -28 -16 -15 11 -35 21 -46 21 -11 0 -16 5 -13 10 3 6 22 10
41 10 27 0 37 -5 46 -25z m-37 -18 c1 -1 13 -17 28 -35 49 -60 30 -141 -36
-157 -13 -4 -41 -5 -62 -3 -46 4 -90 53 -98 111 -6 40 -1 45 29 22 16 -13 17
-16 4 -25 -12 -8 -9 -10 12 -10 33 0 44 -15 21 -29 -16 -9 -16 -10 4 -11 12 0
27 -8 32 -17 9 -16 10 -16 11 5 0 31 24 28 37 -5 10 -26 11 -26 12 -5 1 19 5
22 29 17 l27 -6 -23 17 c-21 16 -21 17 -5 31 17 13 16 14 -9 9 -33 -7 -46 10
-22 30 18 14 18 14 0 7 -13 -4 -23 0 -32 12 -13 17 -14 17 -14 2 0 -25 -27
-21 -36 6 l-8 22 -5 -22 c-5 -19 -9 -20 -35 -9 l-30 12 35 22 c27 17 44 20 84
16 27 -3 50 -6 50 -7z m285 -192 c-14 -27 -53 -40 -77 -26 -14 8 -11 11 17 23
19 8 42 23 50 33 19 23 27 1 10 -30z m-420 11 c6 -8 28 -20 47 -27 39 -13 29
-29 -18 -29 -24 0 -30 7 -57 63 -6 13 15 7 28 -7z m438 -82 c-3 -13 -6 -12
-27 2 -23 16 -23 18 -5 31 15 11 19 11 27 -2 4 -9 7 -22 5 -31z m-429 12 c9
-11 6 -17 -14 -30 -24 -16 -25 -16 -25 7 0 37 18 48 39 23z"/>
<path d="M2661 1397 c-1 -14 -7 -16 -28 -11 l-28 6 24 -20 c23 -19 23 -20 5
-31 -17 -11 -16 -12 8 -7 34 8 47 -12 22 -32 -18 -13 -18 -14 3 -8 15 5 25 1
32 -11 10 -17 10 -17 11 0 0 24 25 21 38 -5 l11 -23 0 23 c1 19 4 21 20 12 33
-17 45 -11 20 10 -21 17 -22 21 -9 30 12 8 9 10 -12 10 -34 0 -44 15 -21 30
17 10 16 10 -2 7 -12 -2 -25 5 -32 18 -12 20 -12 20 -13 -2 0 -13 -6 -23 -13
-23 -8 0 -19 10 -25 23 -9 18 -11 19 -11 4z"/>
</g>
</svg>
